<?xml version="1.0" encoding="utf-8" standalone="no"?>
<!DOCTYPE svg PUBLIC "-//W3C//DTD SVG 1.1//EN"
  "http://www.w3.org/Graphics/SVG/1.1/DTD/svg11.dtd">
<svg xmlns:xlink="http://www.w3.org/1999/xlink" width="720pt" height="432pt" viewBox="0 0 720 432" xmlns="http://www.w3.org/2000/svg" version="1.1">
 <metadata>
  <rdf:RDF xmlns:dc="http://purl.org/dc/elements/1.1/" xmlns:cc="http://creativecommons.org/ns#" xmlns:rdf="http://www.w3.org/1999/02/22-rdf-syntax-ns#">
   <cc:Work>
    <dc:type rdf:resource="http://purl.org/dc/dcmitype/StillImage"/>
    <dc:date>2023-12-04T23:20:32.535131</dc:date>
    <dc:format>image/svg+xml</dc:format>
    <dc:creator>
     <cc:Agent>
      <dc:title>Matplotlib v3.8.1, https://matplotlib.org/</dc:title>
     </cc:Agent>
    </dc:creator>
   </cc:Work>
  </rdf:RDF>
 </metadata>
 <defs>
  <style type="text/css">*{stroke-linejoin: round; stroke-linecap: butt}</style>
 </defs>
 <g id="figure_1">
  <g id="patch_1">
   <path d="M 0 432 
L 720 432 
L 720 0 
L 0 0 
z
" style="fill: #ffffff"/>
  </g>
  <g id="axes_1">
   <g id="patch_2">
    <path d="M 90 384.48 
L 648 384.48 
L 648 51.84 
L 90 51.84 
z
" style="fill: #ffffff"/>
   </g>
   <g id="PolyCollection_1">
    <defs>
     <path id="m274142f5e3" d="M 187.781652 -63.840977 
L 178.218348 -63.840977 
L 174.234677 -66.883391 
L 168.169203 -69.925806 
L 159.80368 -72.96822 
L 149.402232 -76.010634 
L 137.837702 -79.053049 
L 126.512188 -82.095463 
L 117.045422 -85.137878 
L 110.825139 -88.180292 
L 108.6 -91.222706 
L 110.286571 -94.265121 
L 115.058834 -97.307535 
L 121.656893 -100.349949 
L 128.768703 -103.392364 
L 135.340253 -106.434778 
L 140.734258 -109.477193 
L 144.735539 -112.519607 
L 147.45339 -115.562021 
L 149.185308 -118.604436 
L 150.292177 -121.64685 
L 151.109535 -124.689264 
L 151.897609 -127.731679 
L 152.82154 -130.774093 
L 153.952215 -133.816508 
L 155.281499 -136.858922 
L 156.747582 -139.901336 
L 158.264734 -142.943751 
L 159.749676 -145.986165 
L 161.137971 -149.028579 
L 162.389072 -152.070994 
L 163.484456 -155.113408 
L 164.424989 -158.155823 
L 165.230065 -161.198237 
L 165.936065 -164.240651 
L 166.590414 -167.283066 
L 167.241076 -170.32548 
L 167.925857 -173.367894 
L 168.66661 -176.410309 
L 169.469793 -179.452723 
L 170.330354 -182.495138 
L 171.234617 -185.537552 
L 172.160269 -188.579966 
L 173.075177 -191.622381 
L 173.938521 -194.664795 
L 174.706657 -197.707209 
L 175.343119 -200.749624 
L 175.829244 -203.792038 
L 176.170703 -206.834453 
L 176.396488 -209.876867 
L 176.550203 -212.919281 
L 176.677115 -215.961696 
L 176.812416 -219.00411 
L 176.975327 -222.046524 
L 177.170489 -225.088939 
L 177.394596 -228.131353 
L 177.64419 -231.173768 
L 177.920754 -234.216182 
L 178.230939 -237.258596 
L 178.582026 -240.301011 
L 178.974883 -243.343425 
L 179.398248 -246.385839 
L 179.828254 -249.428254 
L 180.234767 -252.470668 
L 180.592073 -255.513083 
L 180.888249 -258.555497 
L 181.127783 -261.597911 
L 181.326059 -264.640326 
L 181.499475 -267.68274 
L 181.657407 -270.725154 
L 181.800456 -273.767569 
L 181.924792 -276.809983 
L 182.028577 -279.852398 
L 182.115796 -282.894812 
L 182.195391 -285.937226 
L 182.27701 -288.979641 
L 182.366585 -292.022055 
L 182.464306 -295.064469 
L 182.565548 -298.106884 
L 182.663505 -301.149298 
L 182.751808 -304.191713 
L 182.826103 -307.234127 
L 182.884462 -310.276541 
L 182.927015 -313.318956 
L 182.95523 -316.36137 
L 182.971121 -319.403784 
L 182.976581 -322.446199 
L 182.97307 -325.488613 
L 182.961773 -328.531028 
L 182.944193 -331.573442 
L 182.922824 -334.615856 
L 182.901426 -337.658271 
L 182.884513 -340.700685 
L 182.876124 -343.743099 
L 182.878405 -346.785514 
L 182.89079 -349.827928 
L 182.910254 -352.870343 
L 182.932522 -355.912757 
L 182.953579 -358.955171 
L 182.970781 -361.997586 
L 182.983173 -365.04 
L 183.016827 -365.04 
L 183.016827 -365.04 
L 183.029219 -361.997586 
L 183.046421 -358.955171 
L 183.067478 -355.912757 
L 183.089746 -352.870343 
L 183.10921 -349.827928 
L 183.121595 -346.785514 
L 183.123876 -343.743099 
L 183.115487 -340.700685 
L 183.098574 -337.658271 
L 183.077176 -334.615856 
L 183.055807 -331.573442 
L 183.038227 -328.531028 
L 183.02693 -325.488613 
L 183.023419 -322.446199 
L 183.028879 -319.403784 
L 183.04477 -316.36137 
L 183.072985 -313.318956 
L 183.115538 -310.276541 
L 183.173897 -307.234127 
L 183.248192 -304.191713 
L 183.336495 -301.149298 
L 183.434452 -298.106884 
L 183.535694 -295.064469 
L 183.633415 -292.022055 
L 183.72299 -288.979641 
L 183.804609 -285.937226 
L 183.884204 -282.894812 
L 183.971423 -279.852398 
L 184.075208 -276.809983 
L 184.199544 -273.767569 
L 184.342593 -270.725154 
L 184.500525 -267.68274 
L 184.673941 -264.640326 
L 184.872217 -261.597911 
L 185.111751 -258.555497 
L 185.407927 -255.513083 
L 185.765233 -252.470668 
L 186.171746 -249.428254 
L 186.601752 -246.385839 
L 187.025117 -243.343425 
L 187.417974 -240.301011 
L 187.769061 -237.258596 
L 188.079246 -234.216182 
L 188.35581 -231.173768 
L 188.605404 -228.131353 
L 188.829511 -225.088939 
L 189.024673 -222.046524 
L 189.187584 -219.00411 
L 189.322885 -215.961696 
L 189.449797 -212.919281 
L 189.603512 -209.876867 
L 189.829297 -206.834453 
L 190.170756 -203.792038 
L 190.656881 -200.749624 
L 191.293343 -197.707209 
L 192.061479 -194.664795 
L 192.924823 -191.622381 
L 193.839731 -188.579966 
L 194.765383 -185.537552 
L 195.669646 -182.495138 
L 196.530207 -179.452723 
L 197.33339 -176.410309 
L 198.074143 -173.367894 
L 198.758924 -170.32548 
L 199.409586 -167.283066 
L 200.063935 -164.240651 
L 200.769935 -161.198237 
L 201.575011 -158.155823 
L 202.515544 -155.113408 
L 203.610928 -152.070994 
L 204.862029 -149.028579 
L 206.250324 -145.986165 
L 207.735266 -142.943751 
L 209.252418 -139.901336 
L 210.718501 -136.858922 
L 212.047785 -133.816508 
L 213.17846 -130.774093 
L 214.102391 -127.731679 
L 214.890465 -124.689264 
L 215.707823 -121.64685 
L 216.814692 -118.604436 
L 218.54661 -115.562021 
L 221.264461 -112.519607 
L 225.265742 -109.477193 
L 230.659747 -106.434778 
L 237.231297 -103.392364 
L 244.343107 -100.349949 
L 250.941166 -97.307535 
L 255.713429 -94.265121 
L 257.4 -91.222706 
L 255.174861 -88.180292 
L 248.954578 -85.137878 
L 239.487812 -82.095463 
L 228.162298 -79.053049 
L 216.597768 -76.010634 
L 206.19632 -72.96822 
L 197.830797 -69.925806 
L 191.765323 -66.883391 
L 187.781652 -63.840977 
z
" style="stroke: #3d3d3d; stroke-width: 1.25"/>
    </defs>
    <g clip-path="url(#p358ad170c1)">
     <use xlink:href="#m274142f5e3" x="0" y="432" style="fill: #3274a1; stroke: #3d3d3d; stroke-width: 1.25"/>
    </g>
   </g>
   <g id="PolyCollection_2">
    <defs>
     <path id="m5239314092" d="M 370.048773 -64.874199 
L 367.951227 -64.874199 
L 366.362653 -67.440531 
L 363.110918 -70.006862 
L 357.301691 -72.573194 
L 348.277392 -75.139526 
L 336.163604 -77.705858 
L 322.275986 -80.27219 
L 309.011498 -82.838522 
L 299.107183 -85.404853 
L 294.6 -87.971185 
L 296.075366 -90.537517 
L 302.602852 -93.103849 
L 312.294444 -95.670181 
L 323.082172 -98.236513 
L 333.314929 -100.802844 
L 342.007689 -103.369176 
L 348.801585 -105.935508 
L 353.781093 -108.50184 
L 357.268292 -111.068172 
L 359.654683 -113.634504 
L 361.290325 -116.200835 
L 362.432493 -118.767167 
L 363.245338 -121.333499 
L 363.82998 -123.899831 
L 364.258349 -126.466163 
L 364.591579 -129.032495 
L 364.880019 -131.598826 
L 365.154552 -134.165158 
L 365.420683 -136.73149 
L 365.661097 -139.297822 
L 365.846163 -141.864154 
L 365.948728 -144.430485 
L 365.958344 -146.996817 
L 365.889408 -149.563149 
L 365.778687 -152.129481 
L 365.672467 -154.695813 
L 365.610088 -157.262145 
L 365.613007 -159.828476 
L 365.683676 -162.394808 
L 365.811128 -164.96114 
L 365.977499 -167.527472 
L 366.162784 -170.093804 
L 366.348407 -172.660136 
L 366.519946 -175.226467 
L 366.667983 -177.792799 
L 366.787143 -180.359131 
L 366.875394 -182.925463 
L 366.934957 -185.491795 
L 366.973195 -188.058127 
L 367.001149 -190.624458 
L 367.030034 -193.19079 
L 367.067897 -195.757122 
L 367.117574 -198.323454 
L 367.176097 -200.889786 
L 367.236698 -203.456118 
L 367.29408 -206.022449 
L 367.349813 -208.588781 
L 367.412493 -211.155113 
L 367.491453 -213.721445 
L 367.58951 -216.287777 
L 367.701269 -218.854109 
L 367.817587 -221.42044 
L 367.930817 -223.986772 
L 368.035857 -226.553104 
L 368.127533 -229.119436 
L 368.199061 -231.685768 
L 368.24484 -234.2521 
L 368.265516 -236.818431 
L 368.270045 -239.384763 
L 368.271789 -241.951095 
L 368.281335 -244.517427 
L 368.301807 -247.083759 
L 368.330053 -249.650091 
L 368.361744 -252.216422 
L 368.395575 -254.782754 
L 368.433586 -257.349086 
L 368.47855 -259.915418 
L 368.531374 -262.48175 
L 368.590232 -265.048082 
L 368.651085 -267.614413 
L 368.70857 -270.180745 
L 368.757027 -272.747077 
L 368.79192 -275.313409 
L 368.811337 -277.879741 
L 368.816677 -280.446073 
L 368.812036 -283.012404 
L 368.802849 -285.578736 
L 368.794638 -288.145068 
L 368.792087 -290.7114 
L 368.798158 -293.277732 
L 368.813321 -295.844063 
L 368.835586 -298.410395 
L 368.861652 -300.976727 
L 368.888477 -303.543059 
L 368.914106 -306.109391 
L 368.937412 -308.675723 
L 368.957485 -311.242054 
L 368.973495 -313.808386 
L 368.985036 -316.374718 
L 368.992425 -318.94105 
L 369.007575 -318.94105 
L 369.007575 -318.94105 
L 369.014964 -316.374718 
L 369.026505 -313.808386 
L 369.042515 -311.242054 
L 369.062588 -308.675723 
L 369.085894 -306.109391 
L 369.111523 -303.543059 
L 369.138348 -300.976727 
L 369.164414 -298.410395 
L 369.186679 -295.844063 
L 369.201842 -293.277732 
L 369.207913 -290.7114 
L 369.205362 -288.145068 
L 369.197151 -285.578736 
L 369.187964 -283.012404 
L 369.183323 -280.446073 
L 369.188663 -277.879741 
L 369.20808 -275.313409 
L 369.242973 -272.747077 
L 369.29143 -270.180745 
L 369.348915 -267.614413 
L 369.409768 -265.048082 
L 369.468626 -262.48175 
L 369.52145 -259.915418 
L 369.566414 -257.349086 
L 369.604425 -254.782754 
L 369.638256 -252.216422 
L 369.669947 -249.650091 
L 369.698193 -247.083759 
L 369.718665 -244.517427 
L 369.728211 -241.951095 
L 369.729955 -239.384763 
L 369.734484 -236.818431 
L 369.75516 -234.2521 
L 369.800939 -231.685768 
L 369.872467 -229.119436 
L 369.964143 -226.553104 
L 370.069183 -223.986772 
L 370.182413 -221.42044 
L 370.298731 -218.854109 
L 370.41049 -216.287777 
L 370.508547 -213.721445 
L 370.587507 -211.155113 
L 370.650187 -208.588781 
L 370.70592 -206.022449 
L 370.763302 -203.456118 
L 370.823903 -200.889786 
L 370.882426 -198.323454 
L 370.932103 -195.757122 
L 370.969966 -193.19079 
L 370.998851 -190.624458 
L 371.026805 -188.058127 
L 371.065043 -185.491795 
L 371.124606 -182.925463 
L 371.212857 -180.359131 
L 371.332017 -177.792799 
L 371.480054 -175.226467 
L 371.651593 -172.660136 
L 371.837216 -170.093804 
L 372.022501 -167.527472 
L 372.188872 -164.96114 
L 372.316324 -162.394808 
L 372.386993 -159.828476 
L 372.389912 -157.262145 
L 372.327533 -154.695813 
L 372.221313 -152.129481 
L 372.110592 -149.563149 
L 372.041656 -146.996817 
L 372.051272 -144.430485 
L 372.153837 -141.864154 
L 372.338903 -139.297822 
L 372.579317 -136.73149 
L 372.845448 -134.165158 
L 373.119981 -131.598826 
L 373.408421 -129.032495 
L 373.741651 -126.466163 
L 374.17002 -123.899831 
L 374.754662 -121.333499 
L 375.567507 -118.767167 
L 376.709675 -116.200835 
L 378.345317 -113.634504 
L 380.731708 -111.068172 
L 384.218907 -108.50184 
L 389.198415 -105.935508 
L 395.992311 -103.369176 
L 404.685071 -100.802844 
L 414.917828 -98.236513 
L 425.705556 -95.670181 
L 435.397148 -93.103849 
L 441.924634 -90.537517 
L 443.4 -87.971185 
L 438.892817 -85.404853 
L 428.988502 -82.838522 
L 415.724014 -80.27219 
L 401.836396 -77.705858 
L 389.722608 -75.139526 
L 380.698309 -72.573194 
L 374.889082 -70.006862 
L 371.637347 -67.440531 
L 370.048773 -64.874199 
z
" style="stroke: #3d3d3d; stroke-width: 1.25"/>
    </defs>
    <g clip-path="url(#p358ad170c1)">
     <use xlink:href="#m5239314092" x="0" y="432" style="fill: #e1812c; stroke: #3d3d3d; stroke-width: 1.25"/>
    </g>
   </g>
   <g id="PolyCollection_3">
    <defs>
     <path id="mcd9eeaf0c2" d="M 556.142912 -62.64 
L 553.857088 -62.64 
L 552.74645 -64.846837 
L 550.834071 -67.053673 
L 547.773947 -69.26051 
L 543.227525 -71.467346 
L 536.964381 -73.674183 
L 528.980183 -75.88102 
L 519.592078 -78.087856 
L 509.466015 -80.294693 
L 499.546581 -82.501529 
L 490.894523 -84.708366 
L 484.474716 -86.915203 
L 480.958684 -89.122039 
L 480.6 -91.328876 
L 483.212301 -93.535712 
L 488.243936 -95.742549 
L 494.916491 -97.949386 
L 502.384432 -100.156222 
L 509.87794 -102.363059 
L 516.803805 -104.569895 
L 522.793718 -106.776732 
L 527.702056 -108.983569 
L 531.564734 -111.190405 
L 534.536373 -113.397242 
L 536.824075 -115.604078 
L 538.632835 -117.810915 
L 540.131137 -120.017752 
L 541.437897 -122.224588 
L 542.625845 -124.431425 
L 543.733457 -126.638261 
L 544.777863 -128.845098 
L 545.763947 -131.051935 
L 546.688591 -133.258771 
L 547.541884 -135.465608 
L 548.308168 -137.672444 
L 548.96886 -139.879281 
L 549.507 -142.086118 
L 549.911926 -144.292954 
L 550.18235 -146.499791 
L 550.327212 -148.706627 
L 550.365062 -150.913464 
L 550.323062 -153.120301 
L 550.23587 -155.327137 
L 550.143459 -157.533974 
L 550.086556 -159.74081 
L 550.099506 -161.947647 
L 550.202339 -164.154484 
L 550.395215 -166.36132 
L 550.658148 -168.568157 
L 550.956806 -170.774994 
L 551.25246 -172.98183 
L 551.51232 -175.188667 
L 551.716629 -177.395503 
L 551.860694 -179.60234 
L 551.952333 -181.809177 
L 552.006872 -184.016013 
L 552.042031 -186.22285 
L 552.074205 -188.429686 
L 552.116451 -190.636523 
L 552.177677 -192.84336 
L 552.262341 -195.050196 
L 552.370336 -197.257033 
L 552.497193 -199.463869 
L 552.634993 -201.670706 
L 552.774181 -203.877543 
L 552.906016 -206.084379 
L 553.024885 -208.291216 
L 553.129567 -210.498052 
L 553.222803 -212.704889 
L 553.309263 -214.911726 
L 553.392775 -217.118562 
L 553.474123 -219.325399 
L 553.550563 -221.532235 
L 553.617411 -223.739072 
L 553.670938 -225.945909 
L 553.711113 -228.152745 
L 553.742713 -230.359582 
L 553.774253 -232.566418 
L 553.815265 -234.773255 
L 553.873216 -236.980092 
L 553.951286 -239.186928 
L 554.047616 -241.393765 
L 554.155925 -243.600601 
L 554.267068 -245.807438 
L 554.371103 -248.014275 
L 554.459517 -250.221111 
L 554.527221 -252.427948 
L 554.573805 -254.634784 
L 554.603548 -256.841621 
L 554.624029 -259.048458 
L 554.643724 -261.255294 
L 554.669431 -263.462131 
L 554.704467 -265.668967 
L 554.748213 -267.875804 
L 554.796993 -270.082641 
L 554.845767 -272.289477 
L 554.889874 -274.496314 
L 554.926223 -276.70315 
L 554.953678 -278.909987 
L 554.972764 -281.116824 
L 555.027236 -281.116824 
L 555.027236 -281.116824 
L 555.046322 -278.909987 
L 555.073777 -276.70315 
L 555.110126 -274.496314 
L 555.154233 -272.289477 
L 555.203007 -270.082641 
L 555.251787 -267.875804 
L 555.295533 -265.668967 
L 555.330569 -263.462131 
L 555.356276 -261.255294 
L 555.375971 -259.048458 
L 555.396452 -256.841621 
L 555.426195 -254.634784 
L 555.472779 -252.427948 
L 555.540483 -250.221111 
L 555.628897 -248.014275 
L 555.732932 -245.807438 
L 555.844075 -243.600601 
L 555.952384 -241.393765 
L 556.048714 -239.186928 
L 556.126784 -236.980092 
L 556.184735 -234.773255 
L 556.225747 -232.566418 
L 556.257287 -230.359582 
L 556.288887 -228.152745 
L 556.329062 -225.945909 
L 556.382589 -223.739072 
L 556.449437 -221.532235 
L 556.525877 -219.325399 
L 556.607225 -217.118562 
L 556.690737 -214.911726 
L 556.777197 -212.704889 
L 556.870433 -210.498052 
L 556.975115 -208.291216 
L 557.093984 -206.084379 
L 557.225819 -203.877543 
L 557.365007 -201.670706 
L 557.502807 -199.463869 
L 557.629664 -197.257033 
L 557.737659 -195.050196 
L 557.822323 -192.84336 
L 557.883549 -190.636523 
L 557.925795 -188.429686 
L 557.957969 -186.22285 
L 557.993128 -184.016013 
L 558.047667 -181.809177 
L 558.139306 -179.60234 
L 558.283371 -177.395503 
L 558.48768 -175.188667 
L 558.74754 -172.98183 
L 559.043194 -170.774994 
L 559.341852 -168.568157 
L 559.604785 -166.36132 
L 559.797661 -164.154484 
L 559.900494 -161.947647 
L 559.913444 -159.74081 
L 559.856541 -157.533974 
L 559.76413 -155.327137 
L 559.676938 -153.120301 
L 559.634938 -150.913464 
L 559.672788 -148.706627 
L 559.81765 -146.499791 
L 560.088074 -144.292954 
L 560.493 -142.086118 
L 561.03114 -139.879281 
L 561.691832 -137.672444 
L 562.458116 -135.465608 
L 563.311409 -133.258771 
L 564.236053 -131.051935 
L 565.222137 -128.845098 
L 566.266543 -126.638261 
L 567.374155 -124.431425 
L 568.562103 -122.224588 
L 569.868863 -120.017752 
L 571.367165 -117.810915 
L 573.175925 -115.604078 
L 575.463627 -113.397242 
L 578.435266 -111.190405 
L 582.297944 -108.983569 
L 587.206282 -106.776732 
L 593.196195 -104.569895 
L 600.12206 -102.363059 
L 607.615568 -100.156222 
L 615.083509 -97.949386 
L 621.756064 -95.742549 
L 626.787699 -93.535712 
L 629.4 -91.328876 
L 629.041316 -89.122039 
L 625.525284 -86.915203 
L 619.105477 -84.708366 
L 610.453419 -82.501529 
L 600.533985 -80.294693 
L 590.407922 -78.087856 
L 581.019817 -75.88102 
L 573.035619 -73.674183 
L 566.772475 -71.467346 
L 562.226053 -69.26051 
L 559.165929 -67.053673 
L 557.25355 -64.846837 
L 556.142912 -62.64 
z
" style="stroke: #3d3d3d; stroke-width: 1.25"/>
    </defs>
    <g clip-path="url(#p358ad170c1)">
     <use xlink:href="#mcd9eeaf0c2" x="0" y="432" style="fill: #3a923a; stroke: #3d3d3d; stroke-width: 1.25"/>
    </g>
   </g>
   <g id="matplotlib.axis_1">
    <g id="xtick_1">
     <g id="line2d_1">
      <defs>
       <path id="m30414131fc" d="M 0 0 
L 0 3.5 
" style="stroke: #000000; stroke-width: 0.8"/>
      </defs>
      <g>
       <use xlink:href="#m30414131fc" x="183" y="384.48" style="stroke: #000000; stroke-width: 0.8"/>
      </g>
     </g>
     <g id="text_1">
      <!-- Dropout -->
      <g transform="translate(162.785156 399.078438) scale(0.1 -0.1)">
       <defs>
        <path id="DejaVuSans-44" d="M 1259 4147 
L 1259 519 
L 2022 519 
Q 2988 519 3436 956 
Q 3884 1394 3884 2338 
Q 3884 3275 3436 3711 
Q 2988 4147 2022 4147 
L 1259 4147 
z
M 628 4666 
L 1925 4666 
Q 3281 4666 3915 4102 
Q 4550 3538 4550 2338 
Q 4550 1131 3912 565 
Q 3275 0 1925 0 
L 628 0 
L 628 4666 
z
" transform="scale(0.015625)"/>
        <path id="DejaVuSans-72" d="M 2631 2963 
Q 2534 3019 2420 3045 
Q 2306 3072 2169 3072 
Q 1681 3072 1420 2755 
Q 1159 2438 1159 1844 
L 1159 0 
L 581 0 
L 581 3500 
L 1159 3500 
L 1159 2956 
Q 1341 3275 1631 3429 
Q 1922 3584 2338 3584 
Q 2397 3584 2469 3576 
Q 2541 3569 2628 3553 
L 2631 2963 
z
" transform="scale(0.015625)"/>
        <path id="DejaVuSans-6f" d="M 1959 3097 
Q 1497 3097 1228 2736 
Q 959 2375 959 1747 
Q 959 1119 1226 758 
Q 1494 397 1959 397 
Q 2419 397 2687 759 
Q 2956 1122 2956 1747 
Q 2956 2369 2687 2733 
Q 2419 3097 1959 3097 
z
M 1959 3584 
Q 2709 3584 3137 3096 
Q 3566 2609 3566 1747 
Q 3566 888 3137 398 
Q 2709 -91 1959 -91 
Q 1206 -91 779 398 
Q 353 888 353 1747 
Q 353 2609 779 3096 
Q 1206 3584 1959 3584 
z
" transform="scale(0.015625)"/>
        <path id="DejaVuSans-70" d="M 1159 525 
L 1159 -1331 
L 581 -1331 
L 581 3500 
L 1159 3500 
L 1159 2969 
Q 1341 3281 1617 3432 
Q 1894 3584 2278 3584 
Q 2916 3584 3314 3078 
Q 3713 2572 3713 1747 
Q 3713 922 3314 415 
Q 2916 -91 2278 -91 
Q 1894 -91 1617 61 
Q 1341 213 1159 525 
z
M 3116 1747 
Q 3116 2381 2855 2742 
Q 2594 3103 2138 3103 
Q 1681 3103 1420 2742 
Q 1159 2381 1159 1747 
Q 1159 1113 1420 752 
Q 1681 391 2138 391 
Q 2594 391 2855 752 
Q 3116 1113 3116 1747 
z
" transform="scale(0.015625)"/>
        <path id="DejaVuSans-75" d="M 544 1381 
L 544 3500 
L 1119 3500 
L 1119 1403 
Q 1119 906 1312 657 
Q 1506 409 1894 409 
Q 2359 409 2629 706 
Q 2900 1003 2900 1516 
L 2900 3500 
L 3475 3500 
L 3475 0 
L 2900 0 
L 2900 538 
Q 2691 219 2414 64 
Q 2138 -91 1772 -91 
Q 1169 -91 856 284 
Q 544 659 544 1381 
z
M 1991 3584 
L 1991 3584 
z
" transform="scale(0.015625)"/>
        <path id="DejaVuSans-74" d="M 1172 4494 
L 1172 3500 
L 2356 3500 
L 2356 3053 
L 1172 3053 
L 1172 1153 
Q 1172 725 1289 603 
Q 1406 481 1766 481 
L 2356 481 
L 2356 0 
L 1766 0 
Q 1100 0 847 248 
Q 594 497 594 1153 
L 594 3053 
L 172 3053 
L 172 3500 
L 594 3500 
L 594 4494 
L 1172 4494 
z
" transform="scale(0.015625)"/>
       </defs>
       <use xlink:href="#DejaVuSans-44"/>
       <use xlink:href="#DejaVuSans-72" x="77.001953"/>
       <use xlink:href="#DejaVuSans-6f" x="115.865234"/>
       <use xlink:href="#DejaVuSans-70" x="177.046875"/>
       <use xlink:href="#DejaVuSans-6f" x="240.523438"/>
       <use xlink:href="#DejaVuSans-75" x="301.705078"/>
       <use xlink:href="#DejaVuSans-74" x="365.083984"/>
      </g>
     </g>
    </g>
    <g id="xtick_2">
     <g id="line2d_2">
      <g>
       <use xlink:href="#m30414131fc" x="369" y="384.48" style="stroke: #000000; stroke-width: 0.8"/>
      </g>
     </g>
     <g id="text_2">
      <!-- Graduate -->
      <g transform="translate(345.5625 399.078438) scale(0.1 -0.1)">
       <defs>
        <path id="DejaVuSans-47" d="M 3809 666 
L 3809 1919 
L 2778 1919 
L 2778 2438 
L 4434 2438 
L 4434 434 
Q 4069 175 3628 42 
Q 3188 -91 2688 -91 
Q 1594 -91 976 548 
Q 359 1188 359 2328 
Q 359 3472 976 4111 
Q 1594 4750 2688 4750 
Q 3144 4750 3555 4637 
Q 3966 4525 4313 4306 
L 4313 3634 
Q 3963 3931 3569 4081 
Q 3175 4231 2741 4231 
Q 1884 4231 1454 3753 
Q 1025 3275 1025 2328 
Q 1025 1384 1454 906 
Q 1884 428 2741 428 
Q 3075 428 3337 486 
Q 3600 544 3809 666 
z
" transform="scale(0.015625)"/>
        <path id="DejaVuSans-61" d="M 2194 1759 
Q 1497 1759 1228 1600 
Q 959 1441 959 1056 
Q 959 750 1161 570 
Q 1363 391 1709 391 
Q 2188 391 2477 730 
Q 2766 1069 2766 1631 
L 2766 1759 
L 2194 1759 
z
M 3341 1997 
L 3341 0 
L 2766 0 
L 2766 531 
Q 2569 213 2275 61 
Q 1981 -91 1556 -91 
Q 1019 -91 701 211 
Q 384 513 384 1019 
Q 384 1609 779 1909 
Q 1175 2209 1959 2209 
L 2766 2209 
L 2766 2266 
Q 2766 2663 2505 2880 
Q 2244 3097 1772 3097 
Q 1472 3097 1187 3025 
Q 903 2953 641 2809 
L 641 3341 
Q 956 3463 1253 3523 
Q 1550 3584 1831 3584 
Q 2591 3584 2966 3190 
Q 3341 2797 3341 1997 
z
" transform="scale(0.015625)"/>
        <path id="DejaVuSans-64" d="M 2906 2969 
L 2906 4863 
L 3481 4863 
L 3481 0 
L 2906 0 
L 2906 525 
Q 2725 213 2448 61 
Q 2172 -91 1784 -91 
Q 1150 -91 751 415 
Q 353 922 353 1747 
Q 353 2572 751 3078 
Q 1150 3584 1784 3584 
Q 2172 3584 2448 3432 
Q 2725 3281 2906 2969 
z
M 947 1747 
Q 947 1113 1208 752 
Q 1469 391 1925 391 
Q 2381 391 2643 752 
Q 2906 1113 2906 1747 
Q 2906 2381 2643 2742 
Q 2381 3103 1925 3103 
Q 1469 3103 1208 2742 
Q 947 2381 947 1747 
z
" transform="scale(0.015625)"/>
        <path id="DejaVuSans-65" d="M 3597 1894 
L 3597 1613 
L 953 1613 
Q 991 1019 1311 708 
Q 1631 397 2203 397 
Q 2534 397 2845 478 
Q 3156 559 3463 722 
L 3463 178 
Q 3153 47 2828 -22 
Q 2503 -91 2169 -91 
Q 1331 -91 842 396 
Q 353 884 353 1716 
Q 353 2575 817 3079 
Q 1281 3584 2069 3584 
Q 2775 3584 3186 3129 
Q 3597 2675 3597 1894 
z
M 3022 2063 
Q 3016 2534 2758 2815 
Q 2500 3097 2075 3097 
Q 1594 3097 1305 2825 
Q 1016 2553 972 2059 
L 3022 2063 
z
" transform="scale(0.015625)"/>
       </defs>
       <use xlink:href="#DejaVuSans-47"/>
       <use xlink:href="#DejaVuSans-72" x="77.490234"/>
       <use xlink:href="#DejaVuSans-61" x="118.603516"/>
       <use xlink:href="#DejaVuSans-64" x="179.882812"/>
       <use xlink:href="#DejaVuSans-75" x="243.359375"/>
       <use xlink:href="#DejaVuSans-61" x="306.738281"/>
       <use xlink:href="#DejaVuSans-74" x="368.017578"/>
       <use xlink:href="#DejaVuSans-65" x="407.226562"/>
      </g>
     </g>
    </g>
    <g id="xtick_3">
     <g id="line2d_3">
      <g>
       <use xlink:href="#m30414131fc" x="555" y="384.48" style="stroke: #000000; stroke-width: 0.8"/>
      </g>
     </g>
     <g id="text_3">
      <!-- Enrolled -->
      <g transform="translate(534.640625 399.078438) scale(0.1 -0.1)">
       <defs>
        <path id="DejaVuSans-45" d="M 628 4666 
L 3578 4666 
L 3578 4134 
L 1259 4134 
L 1259 2753 
L 3481 2753 
L 3481 2222 
L 1259 2222 
L 1259 531 
L 3634 531 
L 3634 0 
L 628 0 
L 628 4666 
z
" transform="scale(0.015625)"/>
        <path id="DejaVuSans-6e" d="M 3513 2113 
L 3513 0 
L 2938 0 
L 2938 2094 
Q 2938 2591 2744 2837 
Q 2550 3084 2163 3084 
Q 1697 3084 1428 2787 
Q 1159 2491 1159 1978 
L 1159 0 
L 581 0 
L 581 3500 
L 1159 3500 
L 1159 2956 
Q 1366 3272 1645 3428 
Q 1925 3584 2291 3584 
Q 2894 3584 3203 3211 
Q 3513 2838 3513 2113 
z
" transform="scale(0.015625)"/>
        <path id="DejaVuSans-6c" d="M 603 4863 
L 1178 4863 
L 1178 0 
L 603 0 
L 603 4863 
z
" transform="scale(0.015625)"/>
       </defs>
       <use xlink:href="#DejaVuSans-45"/>
       <use xlink:href="#DejaVuSans-6e" x="63.183594"/>
       <use xlink:href="#DejaVuSans-72" x="126.5625"/>
       <use xlink:href="#DejaVuSans-6f" x="165.425781"/>
       <use xlink:href="#DejaVuSans-6c" x="226.607422"/>
       <use xlink:href="#DejaVuSans-6c" x="254.390625"/>
       <use xlink:href="#DejaVuSans-65" x="282.173828"/>
       <use xlink:href="#DejaVuSans-64" x="343.697266"/>
      </g>
     </g>
    </g>
    <g id="text_4">
     <!-- Target -->
     <g transform="translate(353.528125 412.756563) scale(0.1 -0.1)">
      <defs>
       <path id="DejaVuSans-54" d="M -19 4666 
L 3928 4666 
L 3928 4134 
L 2272 4134 
L 2272 0 
L 1638 0 
L 1638 4134 
L -19 4134 
L -19 4666 
z
" transform="scale(0.015625)"/>
       <path id="DejaVuSans-67" d="M 2906 1791 
Q 2906 2416 2648 2759 
Q 2391 3103 1925 3103 
Q 1463 3103 1205 2759 
Q 947 2416 947 1791 
Q 947 1169 1205 825 
Q 1463 481 1925 481 
Q 2391 481 2648 825 
Q 2906 1169 2906 1791 
z
M 3481 434 
Q 3481 -459 3084 -895 
Q 2688 -1331 1869 -1331 
Q 1566 -1331 1297 -1286 
Q 1028 -1241 775 -1147 
L 775 -588 
Q 1028 -725 1275 -790 
Q 1522 -856 1778 -856 
Q 2344 -856 2625 -561 
Q 2906 -266 2906 331 
L 2906 616 
Q 2728 306 2450 153 
Q 2172 0 1784 0 
Q 1141 0 747 490 
Q 353 981 353 1791 
Q 353 2603 747 3093 
Q 1141 3584 1784 3584 
Q 2172 3584 2450 3431 
Q 2728 3278 2906 2969 
L 2906 3500 
L 3481 3500 
L 3481 434 
z
" transform="scale(0.015625)"/>
      </defs>
      <use xlink:href="#DejaVuSans-54"/>
      <use xlink:href="#DejaVuSans-61" x="44.583984"/>
      <use xlink:href="#DejaVuSans-72" x="105.863281"/>
      <use xlink:href="#DejaVuSans-67" x="145.226562"/>
      <use xlink:href="#DejaVuSans-65" x="208.703125"/>
      <use xlink:href="#DejaVuSans-74" x="270.226562"/>
     </g>
    </g>
   </g>
   <g id="matplotlib.axis_2">
    <g id="ytick_1">
     <g id="line2d_4">
      <defs>
       <path id="m5a72fb0d59" d="M 0 0 
L -3.5 0 
" style="stroke: #000000; stroke-width: 0.8"/>
      </defs>
      <g>
       <use xlink:href="#m5a72fb0d59" x="90" y="337.734787" style="stroke: #000000; stroke-width: 0.8"/>
      </g>
     </g>
     <g id="text_5">
      <!-- 20 -->
      <g transform="translate(70.275 341.534006) scale(0.1 -0.1)">
       <defs>
        <path id="DejaVuSans-32" d="M 1228 531 
L 3431 531 
L 3431 0 
L 469 0 
L 469 531 
Q 828 903 1448 1529 
Q 2069 2156 2228 2338 
Q 2531 2678 2651 2914 
Q 2772 3150 2772 3378 
Q 2772 3750 2511 3984 
Q 2250 4219 1831 4219 
Q 1534 4219 1204 4116 
Q 875 4013 500 3803 
L 500 4441 
Q 881 4594 1212 4672 
Q 1544 4750 1819 4750 
Q 2544 4750 2975 4387 
Q 3406 4025 3406 3419 
Q 3406 3131 3298 2873 
Q 3191 2616 2906 2266 
Q 2828 2175 2409 1742 
Q 1991 1309 1228 531 
z
" transform="scale(0.015625)"/>
        <path id="DejaVuSans-30" d="M 2034 4250 
Q 1547 4250 1301 3770 
Q 1056 3291 1056 2328 
Q 1056 1369 1301 889 
Q 1547 409 2034 409 
Q 2525 409 2770 889 
Q 3016 1369 3016 2328 
Q 3016 3291 2770 3770 
Q 2525 4250 2034 4250 
z
M 2034 4750 
Q 2819 4750 3233 4129 
Q 3647 3509 3647 2328 
Q 3647 1150 3233 529 
Q 2819 -91 2034 -91 
Q 1250 -91 836 529 
Q 422 1150 422 2328 
Q 422 3509 836 4129 
Q 1250 4750 2034 4750 
z
" transform="scale(0.015625)"/>
       </defs>
       <use xlink:href="#DejaVuSans-32"/>
       <use xlink:href="#DejaVuSans-30" x="63.623047"/>
      </g>
     </g>
    </g>
    <g id="ytick_2">
     <g id="line2d_5">
      <g>
       <use xlink:href="#m5a72fb0d59" x="90" y="287.661755" style="stroke: #000000; stroke-width: 0.8"/>
      </g>
     </g>
     <g id="text_6">
      <!-- 30 -->
      <g transform="translate(70.275 291.460974) scale(0.1 -0.1)">
       <defs>
        <path id="DejaVuSans-33" d="M 2597 2516 
Q 3050 2419 3304 2112 
Q 3559 1806 3559 1356 
Q 3559 666 3084 287 
Q 2609 -91 1734 -91 
Q 1441 -91 1130 -33 
Q 819 25 488 141 
L 488 750 
Q 750 597 1062 519 
Q 1375 441 1716 441 
Q 2309 441 2620 675 
Q 2931 909 2931 1356 
Q 2931 1769 2642 2001 
Q 2353 2234 1838 2234 
L 1294 2234 
L 1294 2753 
L 1863 2753 
Q 2328 2753 2575 2939 
Q 2822 3125 2822 3475 
Q 2822 3834 2567 4026 
Q 2313 4219 1838 4219 
Q 1578 4219 1281 4162 
Q 984 4106 628 3988 
L 628 4550 
Q 988 4650 1302 4700 
Q 1616 4750 1894 4750 
Q 2613 4750 3031 4423 
Q 3450 4097 3450 3541 
Q 3450 3153 3228 2886 
Q 3006 2619 2597 2516 
z
" transform="scale(0.015625)"/>
       </defs>
       <use xlink:href="#DejaVuSans-33"/>
       <use xlink:href="#DejaVuSans-30" x="63.623047"/>
      </g>
     </g>
    </g>
    <g id="ytick_3">
     <g id="line2d_6">
      <g>
       <use xlink:href="#m5a72fb0d59" x="90" y="237.588724" style="stroke: #000000; stroke-width: 0.8"/>
      </g>
     </g>
     <g id="text_7">
      <!-- 40 -->
      <g transform="translate(70.275 241.387943) scale(0.1 -0.1)">
       <defs>
        <path id="DejaVuSans-34" d="M 2419 4116 
L 825 1625 
L 2419 1625 
L 2419 4116 
z
M 2253 4666 
L 3047 4666 
L 3047 1625 
L 3713 1625 
L 3713 1100 
L 3047 1100 
L 3047 0 
L 2419 0 
L 2419 1100 
L 313 1100 
L 313 1709 
L 2253 4666 
z
" transform="scale(0.015625)"/>
       </defs>
       <use xlink:href="#DejaVuSans-34"/>
       <use xlink:href="#DejaVuSans-30" x="63.623047"/>
      </g>
     </g>
    </g>
    <g id="ytick_4">
     <g id="line2d_7">
      <g>
       <use xlink:href="#m5a72fb0d59" x="90" y="187.515693" style="stroke: #000000; stroke-width: 0.8"/>
      </g>
     </g>
     <g id="text_8">
      <!-- 50 -->
      <g transform="translate(70.275 191.314911) scale(0.1 -0.1)">
       <defs>
        <path id="DejaVuSans-35" d="M 691 4666 
L 3169 4666 
L 3169 4134 
L 1269 4134 
L 1269 2991 
Q 1406 3038 1543 3061 
Q 1681 3084 1819 3084 
Q 2600 3084 3056 2656 
Q 3513 2228 3513 1497 
Q 3513 744 3044 326 
Q 2575 -91 1722 -91 
Q 1428 -91 1123 -41 
Q 819 9 494 109 
L 494 744 
Q 775 591 1075 516 
Q 1375 441 1709 441 
Q 2250 441 2565 725 
Q 2881 1009 2881 1497 
Q 2881 1984 2565 2268 
Q 2250 2553 1709 2553 
Q 1456 2553 1204 2497 
Q 953 2441 691 2322 
L 691 4666 
z
" transform="scale(0.015625)"/>
       </defs>
       <use xlink:href="#DejaVuSans-35"/>
       <use xlink:href="#DejaVuSans-30" x="63.623047"/>
      </g>
     </g>
    </g>
    <g id="ytick_5">
     <g id="line2d_8">
      <g>
       <use xlink:href="#m5a72fb0d59" x="90" y="137.442661" style="stroke: #000000; stroke-width: 0.8"/>
      </g>
     </g>
     <g id="text_9">
      <!-- 60 -->
      <g transform="translate(70.275 141.24188) scale(0.1 -0.1)">
       <defs>
        <path id="DejaVuSans-36" d="M 2113 2584 
Q 1688 2584 1439 2293 
Q 1191 2003 1191 1497 
Q 1191 994 1439 701 
Q 1688 409 2113 409 
Q 2538 409 2786 701 
Q 3034 994 3034 1497 
Q 3034 2003 2786 2293 
Q 2538 2584 2113 2584 
z
M 3366 4563 
L 3366 3988 
Q 3128 4100 2886 4159 
Q 2644 4219 2406 4219 
Q 1781 4219 1451 3797 
Q 1122 3375 1075 2522 
Q 1259 2794 1537 2939 
Q 1816 3084 2150 3084 
Q 2853 3084 3261 2657 
Q 3669 2231 3669 1497 
Q 3669 778 3244 343 
Q 2819 -91 2113 -91 
Q 1303 -91 875 529 
Q 447 1150 447 2328 
Q 447 3434 972 4092 
Q 1497 4750 2381 4750 
Q 2619 4750 2861 4703 
Q 3103 4656 3366 4563 
z
" transform="scale(0.015625)"/>
       </defs>
       <use xlink:href="#DejaVuSans-36"/>
       <use xlink:href="#DejaVuSans-30" x="63.623047"/>
      </g>
     </g>
    </g>
    <g id="ytick_6">
     <g id="line2d_9">
      <g>
       <use xlink:href="#m5a72fb0d59" x="90" y="87.36963" style="stroke: #000000; stroke-width: 0.8"/>
      </g>
     </g>
     <g id="text_10">
      <!-- 70 -->
      <g transform="translate(70.275 91.168849) scale(0.1 -0.1)">
       <defs>
        <path id="DejaVuSans-37" d="M 525 4666 
L 3525 4666 
L 3525 4397 
L 1831 0 
L 1172 0 
L 2766 4134 
L 525 4134 
L 525 4666 
z
" transform="scale(0.015625)"/>
       </defs>
       <use xlink:href="#DejaVuSans-37"/>
       <use xlink:href="#DejaVuSans-30" x="63.623047"/>
      </g>
     </g>
    </g>
    <g id="text_11">
     <!-- Age at Enrollment -->
     <g transform="translate(64.195312 263.217812) rotate(-90) scale(0.1 -0.1)">
      <defs>
       <path id="DejaVuSans-41" d="M 2188 4044 
L 1331 1722 
L 3047 1722 
L 2188 4044 
z
M 1831 4666 
L 2547 4666 
L 4325 0 
L 3669 0 
L 3244 1197 
L 1141 1197 
L 716 0 
L 50 0 
L 1831 4666 
z
" transform="scale(0.015625)"/>
       <path id="DejaVuSans-20" transform="scale(0.015625)"/>
       <path id="DejaVuSans-6d" d="M 3328 2828 
Q 3544 3216 3844 3400 
Q 4144 3584 4550 3584 
Q 5097 3584 5394 3201 
Q 5691 2819 5691 2113 
L 5691 0 
L 5113 0 
L 5113 2094 
Q 5113 2597 4934 2840 
Q 4756 3084 4391 3084 
Q 3944 3084 3684 2787 
Q 3425 2491 3425 1978 
L 3425 0 
L 2847 0 
L 2847 2094 
Q 2847 2600 2669 2842 
Q 2491 3084 2119 3084 
Q 1678 3084 1418 2786 
Q 1159 2488 1159 1978 
L 1159 0 
L 581 0 
L 581 3500 
L 1159 3500 
L 1159 2956 
Q 1356 3278 1631 3431 
Q 1906 3584 2284 3584 
Q 2666 3584 2933 3390 
Q 3200 3197 3328 2828 
z
" transform="scale(0.015625)"/>
      </defs>
      <use xlink:href="#DejaVuSans-41"/>
      <use xlink:href="#DejaVuSans-67" x="68.408203"/>
      <use xlink:href="#DejaVuSans-65" x="131.884766"/>
      <use xlink:href="#DejaVuSans-20" x="193.408203"/>
      <use xlink:href="#DejaVuSans-61" x="225.195312"/>
      <use xlink:href="#DejaVuSans-74" x="286.474609"/>
      <use xlink:href="#DejaVuSans-20" x="325.683594"/>
      <use xlink:href="#DejaVuSans-45" x="357.470703"/>
      <use xlink:href="#DejaVuSans-6e" x="420.654297"/>
      <use xlink:href="#DejaVuSans-72" x="484.033203"/>
      <use xlink:href="#DejaVuSans-6f" x="522.896484"/>
      <use xlink:href="#DejaVuSans-6c" x="584.078125"/>
      <use xlink:href="#DejaVuSans-6c" x="611.861328"/>
      <use xlink:href="#DejaVuSans-6d" x="639.644531"/>
      <use xlink:href="#DejaVuSans-65" x="737.056641"/>
      <use xlink:href="#DejaVuSans-6e" x="798.580078"/>
      <use xlink:href="#DejaVuSans-74" x="861.958984"/>
     </g>
    </g>
   </g>
   <g id="line2d_10">
    <path d="M 183 347.749393 
L 183 207.544905 
" clip-path="url(#p358ad170c1)" style="fill: none; stroke: #3d3d3d; stroke-width: 1.875; stroke-linecap: square"/>
   </g>
   <g id="line2d_11">
    <path d="M 183 342.74209 
L 183 287.661755 
" clip-path="url(#p358ad170c1)" style="fill: none; stroke: #3d3d3d; stroke-width: 5.625; stroke-linecap: square"/>
   </g>
   <g id="line2d_12">
    <path d="M 183 322.712877 
" clip-path="url(#p358ad170c1)" style="fill: none; stroke: #3d3d3d; stroke-width: 1.5; stroke-linecap: square"/>
    <defs>
     <path id="m63e7de7311" d="M 2.34375 0 
L -2.34375 -0 
" style="stroke: #ffffff; stroke-width: 1.125"/>
    </defs>
    <g clip-path="url(#p358ad170c1)">
     <use xlink:href="#m63e7de7311" x="183" y="322.712877" style="fill: #ffffff; stroke: #ffffff; stroke-width: 1.125"/>
    </g>
   </g>
   <g id="line2d_13">
    <path d="M 369 352.756696 
L 369 312.698271 
" clip-path="url(#p358ad170c1)" style="fill: none; stroke: #3d3d3d; stroke-width: 1.875; stroke-linecap: square"/>
   </g>
   <g id="line2d_14">
    <path d="M 369 347.749393 
L 369 332.727484 
" clip-path="url(#p358ad170c1)" style="fill: none; stroke: #3d3d3d; stroke-width: 5.625; stroke-linecap: square"/>
   </g>
   <g id="line2d_15">
    <path d="M 369 342.74209 
" clip-path="url(#p358ad170c1)" style="fill: none; stroke: #3d3d3d; stroke-width: 1.5; stroke-linecap: square"/>
    <g clip-path="url(#p358ad170c1)">
     <use xlink:href="#m63e7de7311" x="369" y="342.74209" style="fill: #ffffff; stroke: #ffffff; stroke-width: 1.125"/>
    </g>
   </g>
   <g id="line2d_16">
    <path d="M 555 352.756696 
L 555 292.669059 
" clip-path="url(#p358ad170c1)" style="fill: none; stroke: #3d3d3d; stroke-width: 1.875; stroke-linecap: square"/>
   </g>
   <g id="line2d_17">
    <path d="M 555 342.74209 
L 555 322.712877 
" clip-path="url(#p358ad170c1)" style="fill: none; stroke: #3d3d3d; stroke-width: 5.625; stroke-linecap: square"/>
   </g>
   <g id="line2d_18">
    <path d="M 555 337.734787 
" clip-path="url(#p358ad170c1)" style="fill: none; stroke: #3d3d3d; stroke-width: 1.5; stroke-linecap: square"/>
    <g clip-path="url(#p358ad170c1)">
     <use xlink:href="#m63e7de7311" x="555" y="337.734787" style="fill: #ffffff; stroke: #ffffff; stroke-width: 1.125"/>
    </g>
   </g>
   <g id="patch_3">
    <path d="M 90 384.48 
L 90 51.84 
" style="fill: none; stroke: #000000; stroke-width: 0.8; stroke-linejoin: miter; stroke-linecap: square"/>
   </g>
   <g id="patch_4">
    <path d="M 648 384.48 
L 648 51.84 
" style="fill: none; stroke: #000000; stroke-width: 0.8; stroke-linejoin: miter; stroke-linecap: square"/>
   </g>
   <g id="patch_5">
    <path d="M 90 384.48 
L 648 384.48 
" style="fill: none; stroke: #000000; stroke-width: 0.8; stroke-linejoin: miter; stroke-linecap: square"/>
   </g>
   <g id="patch_6">
    <path d="M 90 51.84 
L 648 51.84 
" style="fill: none; stroke: #000000; stroke-width: 0.8; stroke-linejoin: miter; stroke-linecap: square"/>
   </g>
   <g id="text_12">
    <!-- Age Distribution of Students by Target Category - Violin Plot -->
    <g transform="translate(189.45 45.84) scale(0.12 -0.12)">
     <defs>
      <path id="DejaVuSans-69" d="M 603 3500 
L 1178 3500 
L 1178 0 
L 603 0 
L 603 3500 
z
M 603 4863 
L 1178 4863 
L 1178 4134 
L 603 4134 
L 603 4863 
z
" transform="scale(0.015625)"/>
      <path id="DejaVuSans-73" d="M 2834 3397 
L 2834 2853 
Q 2591 2978 2328 3040 
Q 2066 3103 1784 3103 
Q 1356 3103 1142 2972 
Q 928 2841 928 2578 
Q 928 2378 1081 2264 
Q 1234 2150 1697 2047 
L 1894 2003 
Q 2506 1872 2764 1633 
Q 3022 1394 3022 966 
Q 3022 478 2636 193 
Q 2250 -91 1575 -91 
Q 1294 -91 989 -36 
Q 684 19 347 128 
L 347 722 
Q 666 556 975 473 
Q 1284 391 1588 391 
Q 1994 391 2212 530 
Q 2431 669 2431 922 
Q 2431 1156 2273 1281 
Q 2116 1406 1581 1522 
L 1381 1569 
Q 847 1681 609 1914 
Q 372 2147 372 2553 
Q 372 3047 722 3315 
Q 1072 3584 1716 3584 
Q 2034 3584 2315 3537 
Q 2597 3491 2834 3397 
z
" transform="scale(0.015625)"/>
      <path id="DejaVuSans-62" d="M 3116 1747 
Q 3116 2381 2855 2742 
Q 2594 3103 2138 3103 
Q 1681 3103 1420 2742 
Q 1159 2381 1159 1747 
Q 1159 1113 1420 752 
Q 1681 391 2138 391 
Q 2594 391 2855 752 
Q 3116 1113 3116 1747 
z
M 1159 2969 
Q 1341 3281 1617 3432 
Q 1894 3584 2278 3584 
Q 2916 3584 3314 3078 
Q 3713 2572 3713 1747 
Q 3713 922 3314 415 
Q 2916 -91 2278 -91 
Q 1894 -91 1617 61 
Q 1341 213 1159 525 
L 1159 0 
L 581 0 
L 581 4863 
L 1159 4863 
L 1159 2969 
z
" transform="scale(0.015625)"/>
      <path id="DejaVuSans-66" d="M 2375 4863 
L 2375 4384 
L 1825 4384 
Q 1516 4384 1395 4259 
Q 1275 4134 1275 3809 
L 1275 3500 
L 2222 3500 
L 2222 3053 
L 1275 3053 
L 1275 0 
L 697 0 
L 697 3053 
L 147 3053 
L 147 3500 
L 697 3500 
L 697 3744 
Q 697 4328 969 4595 
Q 1241 4863 1831 4863 
L 2375 4863 
z
" transform="scale(0.015625)"/>
      <path id="DejaVuSans-53" d="M 3425 4513 
L 3425 3897 
Q 3066 4069 2747 4153 
Q 2428 4238 2131 4238 
Q 1616 4238 1336 4038 
Q 1056 3838 1056 3469 
Q 1056 3159 1242 3001 
Q 1428 2844 1947 2747 
L 2328 2669 
Q 3034 2534 3370 2195 
Q 3706 1856 3706 1288 
Q 3706 609 3251 259 
Q 2797 -91 1919 -91 
Q 1588 -91 1214 -16 
Q 841 59 441 206 
L 441 856 
Q 825 641 1194 531 
Q 1563 422 1919 422 
Q 2459 422 2753 634 
Q 3047 847 3047 1241 
Q 3047 1584 2836 1778 
Q 2625 1972 2144 2069 
L 1759 2144 
Q 1053 2284 737 2584 
Q 422 2884 422 3419 
Q 422 4038 858 4394 
Q 1294 4750 2059 4750 
Q 2388 4750 2728 4690 
Q 3069 4631 3425 4513 
z
" transform="scale(0.015625)"/>
      <path id="DejaVuSans-79" d="M 2059 -325 
Q 1816 -950 1584 -1140 
Q 1353 -1331 966 -1331 
L 506 -1331 
L 506 -850 
L 844 -850 
Q 1081 -850 1212 -737 
Q 1344 -625 1503 -206 
L 1606 56 
L 191 3500 
L 800 3500 
L 1894 763 
L 2988 3500 
L 3597 3500 
L 2059 -325 
z
" transform="scale(0.015625)"/>
      <path id="DejaVuSans-43" d="M 4122 4306 
L 4122 3641 
Q 3803 3938 3442 4084 
Q 3081 4231 2675 4231 
Q 1875 4231 1450 3742 
Q 1025 3253 1025 2328 
Q 1025 1406 1450 917 
Q 1875 428 2675 428 
Q 3081 428 3442 575 
Q 3803 722 4122 1019 
L 4122 359 
Q 3791 134 3420 21 
Q 3050 -91 2638 -91 
Q 1578 -91 968 557 
Q 359 1206 359 2328 
Q 359 3453 968 4101 
Q 1578 4750 2638 4750 
Q 3056 4750 3426 4639 
Q 3797 4528 4122 4306 
z
" transform="scale(0.015625)"/>
      <path id="DejaVuSans-2d" d="M 313 2009 
L 1997 2009 
L 1997 1497 
L 313 1497 
L 313 2009 
z
" transform="scale(0.015625)"/>
      <path id="DejaVuSans-56" d="M 1831 0 
L 50 4666 
L 709 4666 
L 2188 738 
L 3669 4666 
L 4325 4666 
L 2547 0 
L 1831 0 
z
" transform="scale(0.015625)"/>
      <path id="DejaVuSans-50" d="M 1259 4147 
L 1259 2394 
L 2053 2394 
Q 2494 2394 2734 2622 
Q 2975 2850 2975 3272 
Q 2975 3691 2734 3919 
Q 2494 4147 2053 4147 
L 1259 4147 
z
M 628 4666 
L 2053 4666 
Q 2838 4666 3239 4311 
Q 3641 3956 3641 3272 
Q 3641 2581 3239 2228 
Q 2838 1875 2053 1875 
L 1259 1875 
L 1259 0 
L 628 0 
L 628 4666 
z
" transform="scale(0.015625)"/>
     </defs>
     <use xlink:href="#DejaVuSans-41"/>
     <use xlink:href="#DejaVuSans-67" x="68.408203"/>
     <use xlink:href="#DejaVuSans-65" x="131.884766"/>
     <use xlink:href="#DejaVuSans-20" x="193.408203"/>
     <use xlink:href="#DejaVuSans-44" x="225.195312"/>
     <use xlink:href="#DejaVuSans-69" x="302.197266"/>
     <use xlink:href="#DejaVuSans-73" x="329.980469"/>
     <use xlink:href="#DejaVuSans-74" x="382.080078"/>
     <use xlink:href="#DejaVuSans-72" x="421.289062"/>
     <use xlink:href="#DejaVuSans-69" x="462.402344"/>
     <use xlink:href="#DejaVuSans-62" x="490.185547"/>
     <use xlink:href="#DejaVuSans-75" x="553.662109"/>
     <use xlink:href="#DejaVuSans-74" x="617.041016"/>
     <use xlink:href="#DejaVuSans-69" x="656.25"/>
     <use xlink:href="#DejaVuSans-6f" x="684.033203"/>
     <use xlink:href="#DejaVuSans-6e" x="745.214844"/>
     <use xlink:href="#DejaVuSans-20" x="808.59375"/>
     <use xlink:href="#DejaVuSans-6f" x="840.380859"/>
     <use xlink:href="#DejaVuSans-66" x="901.5625"/>
     <use xlink:href="#DejaVuSans-20" x="936.767578"/>
     <use xlink:href="#DejaVuSans-53" x="968.554688"/>
     <use xlink:href="#DejaVuSans-74" x="1032.03125"/>
     <use xlink:href="#DejaVuSans-75" x="1071.240234"/>
     <use xlink:href="#DejaVuSans-64" x="1134.619141"/>
     <use xlink:href="#DejaVuSans-65" x="1198.095703"/>
     <use xlink:href="#DejaVuSans-6e" x="1259.619141"/>
     <use xlink:href="#DejaVuSans-74" x="1322.998047"/>
     <use xlink:href="#DejaVuSans-73" x="1362.207031"/>
     <use xlink:href="#DejaVuSans-20" x="1414.306641"/>
     <use xlink:href="#DejaVuSans-62" x="1446.09375"/>
     <use xlink:href="#DejaVuSans-79" x="1509.570312"/>
     <use xlink:href="#DejaVuSans-20" x="1568.75"/>
     <use xlink:href="#DejaVuSans-54" x="1600.537109"/>
     <use xlink:href="#DejaVuSans-61" x="1645.121094"/>
     <use xlink:href="#DejaVuSans-72" x="1706.400391"/>
     <use xlink:href="#DejaVuSans-67" x="1745.763672"/>
     <use xlink:href="#DejaVuSans-65" x="1809.240234"/>
     <use xlink:href="#DejaVuSans-74" x="1870.763672"/>
     <use xlink:href="#DejaVuSans-20" x="1909.972656"/>
     <use xlink:href="#DejaVuSans-43" x="1941.759766"/>
     <use xlink:href="#DejaVuSans-61" x="2011.583984"/>
     <use xlink:href="#DejaVuSans-74" x="2072.863281"/>
     <use xlink:href="#DejaVuSans-65" x="2112.072266"/>
     <use xlink:href="#DejaVuSans-67" x="2173.595703"/>
     <use xlink:href="#DejaVuSans-6f" x="2237.072266"/>
     <use xlink:href="#DejaVuSans-72" x="2298.253906"/>
     <use xlink:href="#DejaVuSans-79" x="2339.367188"/>
     <use xlink:href="#DejaVuSans-20" x="2398.546875"/>
     <use xlink:href="#DejaVuSans-2d" x="2430.333984"/>
     <use xlink:href="#DejaVuSans-20" x="2466.417969"/>
     <use xlink:href="#DejaVuSans-56" x="2498.205078"/>
     <use xlink:href="#DejaVuSans-69" x="2564.363281"/>
     <use xlink:href="#DejaVuSans-6f" x="2592.146484"/>
     <use xlink:href="#DejaVuSans-6c" x="2653.328125"/>
     <use xlink:href="#DejaVuSans-69" x="2681.111328"/>
     <use xlink:href="#DejaVuSans-6e" x="2708.894531"/>
     <use xlink:href="#DejaVuSans-20" x="2772.273438"/>
     <use xlink:href="#DejaVuSans-50" x="2804.060547"/>
     <use xlink:href="#DejaVuSans-6c" x="2864.363281"/>
     <use xlink:href="#DejaVuSans-6f" x="2892.146484"/>
     <use xlink:href="#DejaVuSans-74" x="2953.328125"/>
    </g>
   </g>
  </g>
 </g>
 <defs>
  <clipPath id="p358ad170c1">
   <rect x="90" y="51.84" width="558" height="332.64"/>
  </clipPath>
 </defs>
</svg>
