<?xml version="1.0" encoding="utf-8" standalone="no"?>
<!DOCTYPE svg PUBLIC "-//W3C//DTD SVG 1.1//EN"
  "http://www.w3.org/Graphics/SVG/1.1/DTD/svg11.dtd">
<svg xmlns:xlink="http://www.w3.org/1999/xlink" width="720pt" height="720pt" viewBox="0 0 720 720" xmlns="http://www.w3.org/2000/svg" version="1.1">
 <metadata>
  <rdf:RDF xmlns:dc="http://purl.org/dc/elements/1.1/" xmlns:cc="http://creativecommons.org/ns#" xmlns:rdf="http://www.w3.org/1999/02/22-rdf-syntax-ns#">
   <cc:Work>
    <dc:type rdf:resource="http://purl.org/dc/dcmitype/StillImage"/>
    <dc:date>2023-12-04T23:44:59.326632</dc:date>
    <dc:format>image/svg+xml</dc:format>
    <dc:creator>
     <cc:Agent>
      <dc:title>Matplotlib v3.8.1, https://matplotlib.org/</dc:title>
     </cc:Agent>
    </dc:creator>
   </cc:Work>
  </rdf:RDF>
 </metadata>
 <defs>
  <style type="text/css">*{stroke-linejoin: round; stroke-linecap: butt}</style>
 </defs>
 <g id="figure_1">
  <g id="patch_1">
   <path d="M 0 720 
L 720 720 
L 720 0 
L 0 0 
z
" style="fill: #ffffff"/>
  </g>
  <g id="axes_1">
   <g id="patch_2">
    <path d="M 142.95205 130.67867 
C 136.33038 138.57007 131.455464 147.775786 128.649328 157.687714 
C 125.843191 167.599642 125.169013 177.994616 126.671328 188.185974 
C 128.173643 198.377331 131.818627 208.135615 137.365501 216.81622 
C 142.912375 225.496825 150.236254 232.904308 158.853341 238.549352 
C 167.470428 244.194397 177.186712 247.949904 187.360362 249.567797 
C 197.534011 251.18569 207.935968 250.629541 217.879108 247.936088 
C 227.822247 245.242635 237.082702 240.472521 245.048751 233.940846 
C 253.014801 227.409172 259.50709 219.262996 264.096758 210.040432 
L 198.812948 177.551528 
z
" style="fill: #008080"/>
   </g>
   <g id="patch_3">
    <path d="M 264.096758 210.040432 
C 268.927821 200.332803 271.533339 189.668731 271.723013 178.827087 
C 271.912687 167.985442 269.681785 157.236757 265.193243 147.366082 
C 260.704701 137.495407 254.070523 128.749045 245.775248 121.765804 
C 237.479974 114.782563 227.730596 109.736695 217.239177 106.996736 
L 198.812948 177.551528 
z
" style="fill: #daa520"/>
   </g>
   <g id="patch_4">
    <path d="M 217.239177 106.996736 
C 203.88616 103.509435 189.81355 103.88349 176.664643 108.075221 
C 163.515737 112.266951 151.823075 120.10659 142.952042 130.67868 
L 198.812948 177.551528 
z
" style="fill: #6a5acd"/>
   </g>
   <g id="matplotlib.axis_1"/>
   <g id="matplotlib.axis_2"/>
   <g id="text_1">
    <!-- Graduate -->
    <g transform="translate(107.982381 247.40851) scale(0.1 -0.1)">
     <defs>
      <path id="DejaVuSans-47" d="M 3809 666 
L 3809 1919 
L 2778 1919 
L 2778 2438 
L 4434 2438 
L 4434 434 
Q 4069 175 3628 42 
Q 3188 -91 2688 -91 
Q 1594 -91 976 548 
Q 359 1188 359 2328 
Q 359 3472 976 4111 
Q 1594 4750 2688 4750 
Q 3144 4750 3555 4637 
Q 3966 4525 4313 4306 
L 4313 3634 
Q 3963 3931 3569 4081 
Q 3175 4231 2741 4231 
Q 1884 4231 1454 3753 
Q 1025 3275 1025 2328 
Q 1025 1384 1454 906 
Q 1884 428 2741 428 
Q 3075 428 3337 486 
Q 3600 544 3809 666 
z
" transform="scale(0.015625)"/>
      <path id="DejaVuSans-72" d="M 2631 2963 
Q 2534 3019 2420 3045 
Q 2306 3072 2169 3072 
Q 1681 3072 1420 2755 
Q 1159 2438 1159 1844 
L 1159 0 
L 581 0 
L 581 3500 
L 1159 3500 
L 1159 2956 
Q 1341 3275 1631 3429 
Q 1922 3584 2338 3584 
Q 2397 3584 2469 3576 
Q 2541 3569 2628 3553 
L 2631 2963 
z
" transform="scale(0.015625)"/>
      <path id="DejaVuSans-61" d="M 2194 1759 
Q 1497 1759 1228 1600 
Q 959 1441 959 1056 
Q 959 750 1161 570 
Q 1363 391 1709 391 
Q 2188 391 2477 730 
Q 2766 1069 2766 1631 
L 2766 1759 
L 2194 1759 
z
M 3341 1997 
L 3341 0 
L 2766 0 
L 2766 531 
Q 2569 213 2275 61 
Q 1981 -91 1556 -91 
Q 1019 -91 701 211 
Q 384 513 384 1019 
Q 384 1609 779 1909 
Q 1175 2209 1959 2209 
L 2766 2209 
L 2766 2266 
Q 2766 2663 2505 2880 
Q 2244 3097 1772 3097 
Q 1472 3097 1187 3025 
Q 903 2953 641 2809 
L 641 3341 
Q 956 3463 1253 3523 
Q 1550 3584 1831 3584 
Q 2591 3584 2966 3190 
Q 3341 2797 3341 1997 
z
" transform="scale(0.015625)"/>
      <path id="DejaVuSans-64" d="M 2906 2969 
L 2906 4863 
L 3481 4863 
L 3481 0 
L 2906 0 
L 2906 525 
Q 2725 213 2448 61 
Q 2172 -91 1784 -91 
Q 1150 -91 751 415 
Q 353 922 353 1747 
Q 353 2572 751 3078 
Q 1150 3584 1784 3584 
Q 2172 3584 2448 3432 
Q 2725 3281 2906 2969 
z
M 947 1747 
Q 947 1113 1208 752 
Q 1469 391 1925 391 
Q 2381 391 2643 752 
Q 2906 1113 2906 1747 
Q 2906 2381 2643 2742 
Q 2381 3103 1925 3103 
Q 1469 3103 1208 2742 
Q 947 2381 947 1747 
z
" transform="scale(0.015625)"/>
      <path id="DejaVuSans-75" d="M 544 1381 
L 544 3500 
L 1119 3500 
L 1119 1403 
Q 1119 906 1312 657 
Q 1506 409 1894 409 
Q 2359 409 2629 706 
Q 2900 1003 2900 1516 
L 2900 3500 
L 3475 3500 
L 3475 0 
L 2900 0 
L 2900 538 
Q 2691 219 2414 64 
Q 2138 -91 1772 -91 
Q 1169 -91 856 284 
Q 544 659 544 1381 
z
M 1991 3584 
L 1991 3584 
z
" transform="scale(0.015625)"/>
      <path id="DejaVuSans-74" d="M 1172 4494 
L 1172 3500 
L 2356 3500 
L 2356 3053 
L 1172 3053 
L 1172 1153 
Q 1172 725 1289 603 
Q 1406 481 1766 481 
L 2356 481 
L 2356 0 
L 1766 0 
Q 1100 0 847 248 
Q 594 497 594 1153 
L 594 3053 
L 172 3053 
L 172 3500 
L 594 3500 
L 594 4494 
L 1172 4494 
z
" transform="scale(0.015625)"/>
      <path id="DejaVuSans-65" d="M 3597 1894 
L 3597 1613 
L 953 1613 
Q 991 1019 1311 708 
Q 1631 397 2203 397 
Q 2534 397 2845 478 
Q 3156 559 3463 722 
L 3463 178 
Q 3153 47 2828 -22 
Q 2503 -91 2169 -91 
Q 1331 -91 842 396 
Q 353 884 353 1716 
Q 353 2575 817 3079 
Q 1281 3584 2069 3584 
Q 2775 3584 3186 3129 
Q 3597 2675 3597 1894 
z
M 3022 2063 
Q 3016 2534 2758 2815 
Q 2500 3097 2075 3097 
Q 1594 3097 1305 2825 
Q 1016 2553 972 2059 
L 3022 2063 
z
" transform="scale(0.015625)"/>
     </defs>
     <use xlink:href="#DejaVuSans-47"/>
     <use xlink:href="#DejaVuSans-72" x="77.490234"/>
     <use xlink:href="#DejaVuSans-61" x="118.603516"/>
     <use xlink:href="#DejaVuSans-64" x="179.882812"/>
     <use xlink:href="#DejaVuSans-75" x="243.359375"/>
     <use xlink:href="#DejaVuSans-61" x="306.738281"/>
     <use xlink:href="#DejaVuSans-74" x="368.017578"/>
     <use xlink:href="#DejaVuSans-65" x="407.226562"/>
    </g>
   </g>
   <g id="text_2">
    <!-- 53.8% -->
    <g transform="translate(158.95359 216.909598) scale(0.1 -0.1)">
     <defs>
      <path id="DejaVuSans-35" d="M 691 4666 
L 3169 4666 
L 3169 4134 
L 1269 4134 
L 1269 2991 
Q 1406 3038 1543 3061 
Q 1681 3084 1819 3084 
Q 2600 3084 3056 2656 
Q 3513 2228 3513 1497 
Q 3513 744 3044 326 
Q 2575 -91 1722 -91 
Q 1428 -91 1123 -41 
Q 819 9 494 109 
L 494 744 
Q 775 591 1075 516 
Q 1375 441 1709 441 
Q 2250 441 2565 725 
Q 2881 1009 2881 1497 
Q 2881 1984 2565 2268 
Q 2250 2553 1709 2553 
Q 1456 2553 1204 2497 
Q 953 2441 691 2322 
L 691 4666 
z
" transform="scale(0.015625)"/>
      <path id="DejaVuSans-33" d="M 2597 2516 
Q 3050 2419 3304 2112 
Q 3559 1806 3559 1356 
Q 3559 666 3084 287 
Q 2609 -91 1734 -91 
Q 1441 -91 1130 -33 
Q 819 25 488 141 
L 488 750 
Q 750 597 1062 519 
Q 1375 441 1716 441 
Q 2309 441 2620 675 
Q 2931 909 2931 1356 
Q 2931 1769 2642 2001 
Q 2353 2234 1838 2234 
L 1294 2234 
L 1294 2753 
L 1863 2753 
Q 2328 2753 2575 2939 
Q 2822 3125 2822 3475 
Q 2822 3834 2567 4026 
Q 2313 4219 1838 4219 
Q 1578 4219 1281 4162 
Q 984 4106 628 3988 
L 628 4550 
Q 988 4650 1302 4700 
Q 1616 4750 1894 4750 
Q 2613 4750 3031 4423 
Q 3450 4097 3450 3541 
Q 3450 3153 3228 2886 
Q 3006 2619 2597 2516 
z
" transform="scale(0.015625)"/>
      <path id="DejaVuSans-2e" d="M 684 794 
L 1344 794 
L 1344 0 
L 684 0 
L 684 794 
z
" transform="scale(0.015625)"/>
      <path id="DejaVuSans-38" d="M 2034 2216 
Q 1584 2216 1326 1975 
Q 1069 1734 1069 1313 
Q 1069 891 1326 650 
Q 1584 409 2034 409 
Q 2484 409 2743 651 
Q 3003 894 3003 1313 
Q 3003 1734 2745 1975 
Q 2488 2216 2034 2216 
z
M 1403 2484 
Q 997 2584 770 2862 
Q 544 3141 544 3541 
Q 544 4100 942 4425 
Q 1341 4750 2034 4750 
Q 2731 4750 3128 4425 
Q 3525 4100 3525 3541 
Q 3525 3141 3298 2862 
Q 3072 2584 2669 2484 
Q 3125 2378 3379 2068 
Q 3634 1759 3634 1313 
Q 3634 634 3220 271 
Q 2806 -91 2034 -91 
Q 1263 -91 848 271 
Q 434 634 434 1313 
Q 434 1759 690 2068 
Q 947 2378 1403 2484 
z
M 1172 3481 
Q 1172 3119 1398 2916 
Q 1625 2713 2034 2713 
Q 2441 2713 2670 2916 
Q 2900 3119 2900 3481 
Q 2900 3844 2670 4047 
Q 2441 4250 2034 4250 
Q 1625 4250 1398 4047 
Q 1172 3844 1172 3481 
z
" transform="scale(0.015625)"/>
      <path id="DejaVuSans-25" d="M 4653 2053 
Q 4381 2053 4226 1822 
Q 4072 1591 4072 1178 
Q 4072 772 4226 539 
Q 4381 306 4653 306 
Q 4919 306 5073 539 
Q 5228 772 5228 1178 
Q 5228 1588 5073 1820 
Q 4919 2053 4653 2053 
z
M 4653 2450 
Q 5147 2450 5437 2106 
Q 5728 1763 5728 1178 
Q 5728 594 5436 251 
Q 5144 -91 4653 -91 
Q 4153 -91 3862 251 
Q 3572 594 3572 1178 
Q 3572 1766 3864 2108 
Q 4156 2450 4653 2450 
z
M 1428 4353 
Q 1159 4353 1004 4120 
Q 850 3888 850 3481 
Q 850 3069 1003 2837 
Q 1156 2606 1428 2606 
Q 1700 2606 1854 2837 
Q 2009 3069 2009 3481 
Q 2009 3884 1853 4118 
Q 1697 4353 1428 4353 
z
M 4250 4750 
L 4750 4750 
L 1831 -91 
L 1331 -91 
L 4250 4750 
z
M 1428 4750 
Q 1922 4750 2215 4408 
Q 2509 4066 2509 3481 
Q 2509 2891 2217 2550 
Q 1925 2209 1428 2209 
Q 931 2209 642 2551 
Q 353 2894 353 3481 
Q 353 4063 643 4406 
Q 934 4750 1428 4750 
z
" transform="scale(0.015625)"/>
     </defs>
     <use xlink:href="#DejaVuSans-35"/>
     <use xlink:href="#DejaVuSans-33" x="63.623047"/>
     <use xlink:href="#DejaVuSans-2e" x="127.246094"/>
     <use xlink:href="#DejaVuSans-38" x="159.033203"/>
     <use xlink:href="#DejaVuSans-25" x="222.65625"/>
    </g>
   </g>
   <g id="text_3">
    <!-- Dropout -->
    <g transform="translate(271.831272 147.106912) scale(0.1 -0.1)">
     <defs>
      <path id="DejaVuSans-44" d="M 1259 4147 
L 1259 519 
L 2022 519 
Q 2988 519 3436 956 
Q 3884 1394 3884 2338 
Q 3884 3275 3436 3711 
Q 2988 4147 2022 4147 
L 1259 4147 
z
M 628 4666 
L 1925 4666 
Q 3281 4666 3915 4102 
Q 4550 3538 4550 2338 
Q 4550 1131 3912 565 
Q 3275 0 1925 0 
L 628 0 
L 628 4666 
z
" transform="scale(0.015625)"/>
      <path id="DejaVuSans-6f" d="M 1959 3097 
Q 1497 3097 1228 2736 
Q 959 2375 959 1747 
Q 959 1119 1226 758 
Q 1494 397 1959 397 
Q 2419 397 2687 759 
Q 2956 1122 2956 1747 
Q 2956 2369 2687 2733 
Q 2419 3097 1959 3097 
z
M 1959 3584 
Q 2709 3584 3137 3096 
Q 3566 2609 3566 1747 
Q 3566 888 3137 398 
Q 2709 -91 1959 -91 
Q 1206 -91 779 398 
Q 353 888 353 1747 
Q 353 2609 779 3096 
Q 1206 3584 1959 3584 
z
" transform="scale(0.015625)"/>
      <path id="DejaVuSans-70" d="M 1159 525 
L 1159 -1331 
L 581 -1331 
L 581 3500 
L 1159 3500 
L 1159 2969 
Q 1341 3281 1617 3432 
Q 1894 3584 2278 3584 
Q 2916 3584 3314 3078 
Q 3713 2572 3713 1747 
Q 3713 922 3314 415 
Q 2916 -91 2278 -91 
Q 1894 -91 1617 61 
Q 1341 213 1159 525 
z
M 3116 1747 
Q 3116 2381 2855 2742 
Q 2594 3103 2138 3103 
Q 1681 3103 1420 2742 
Q 1159 2381 1159 1747 
Q 1159 1113 1420 752 
Q 1681 391 2138 391 
Q 2594 391 2855 752 
Q 3116 1113 3116 1747 
z
" transform="scale(0.015625)"/>
     </defs>
     <use xlink:href="#DejaVuSans-44"/>
     <use xlink:href="#DejaVuSans-72" x="77.001953"/>
     <use xlink:href="#DejaVuSans-6f" x="115.865234"/>
     <use xlink:href="#DejaVuSans-70" x="177.046875"/>
     <use xlink:href="#DejaVuSans-6f" x="240.523438"/>
     <use xlink:href="#DejaVuSans-75" x="301.705078"/>
     <use xlink:href="#DejaVuSans-74" x="365.083984"/>
    </g>
   </g>
   <g id="text_4">
    <!-- 28.3% -->
    <g transform="translate(222.757531 162.199635) scale(0.1 -0.1)">
     <defs>
      <path id="DejaVuSans-32" d="M 1228 531 
L 3431 531 
L 3431 0 
L 469 0 
L 469 531 
Q 828 903 1448 1529 
Q 2069 2156 2228 2338 
Q 2531 2678 2651 2914 
Q 2772 3150 2772 3378 
Q 2772 3750 2511 3984 
Q 2250 4219 1831 4219 
Q 1534 4219 1204 4116 
Q 875 4013 500 3803 
L 500 4441 
Q 881 4594 1212 4672 
Q 1544 4750 1819 4750 
Q 2544 4750 2975 4387 
Q 3406 4025 3406 3419 
Q 3406 3131 3298 2873 
Q 3191 2616 2906 2266 
Q 2828 2175 2409 1742 
Q 1991 1309 1228 531 
z
" transform="scale(0.015625)"/>
     </defs>
     <use xlink:href="#DejaVuSans-32"/>
     <use xlink:href="#DejaVuSans-38" x="63.623047"/>
     <use xlink:href="#DejaVuSans-2e" x="127.246094"/>
     <use xlink:href="#DejaVuSans-33" x="159.033203"/>
     <use xlink:href="#DejaVuSans-25" x="222.65625"/>
    </g>
   </g>
   <g id="text_5">
    <!-- Enrolled -->
    <g transform="translate(133.731063 103.886965) scale(0.1 -0.1)">
     <defs>
      <path id="DejaVuSans-45" d="M 628 4666 
L 3578 4666 
L 3578 4134 
L 1259 4134 
L 1259 2753 
L 3481 2753 
L 3481 2222 
L 1259 2222 
L 1259 531 
L 3634 531 
L 3634 0 
L 628 0 
L 628 4666 
z
" transform="scale(0.015625)"/>
      <path id="DejaVuSans-6e" d="M 3513 2113 
L 3513 0 
L 2938 0 
L 2938 2094 
Q 2938 2591 2744 2837 
Q 2550 3084 2163 3084 
Q 1697 3084 1428 2787 
Q 1159 2491 1159 1978 
L 1159 0 
L 581 0 
L 581 3500 
L 1159 3500 
L 1159 2956 
Q 1366 3272 1645 3428 
Q 1925 3584 2291 3584 
Q 2894 3584 3203 3211 
Q 3513 2838 3513 2113 
z
" transform="scale(0.015625)"/>
      <path id="DejaVuSans-6c" d="M 603 4863 
L 1178 4863 
L 1178 0 
L 603 0 
L 603 4863 
z
" transform="scale(0.015625)"/>
     </defs>
     <use xlink:href="#DejaVuSans-45"/>
     <use xlink:href="#DejaVuSans-6e" x="63.183594"/>
     <use xlink:href="#DejaVuSans-72" x="126.5625"/>
     <use xlink:href="#DejaVuSans-6f" x="165.425781"/>
     <use xlink:href="#DejaVuSans-6c" x="226.607422"/>
     <use xlink:href="#DejaVuSans-6c" x="254.390625"/>
     <use xlink:href="#DejaVuSans-65" x="282.173828"/>
     <use xlink:href="#DejaVuSans-64" x="343.697266"/>
    </g>
   </g>
   <g id="text_6">
    <!-- 18.0% -->
    <g transform="translate(169.640371 138.625119) scale(0.1 -0.1)">
     <defs>
      <path id="DejaVuSans-31" d="M 794 531 
L 1825 531 
L 1825 4091 
L 703 3866 
L 703 4441 
L 1819 4666 
L 2450 4666 
L 2450 531 
L 3481 531 
L 3481 0 
L 794 0 
L 794 531 
z
" transform="scale(0.015625)"/>
      <path id="DejaVuSans-30" d="M 2034 4250 
Q 1547 4250 1301 3770 
Q 1056 3291 1056 2328 
Q 1056 1369 1301 889 
Q 1547 409 2034 409 
Q 2525 409 2770 889 
Q 3016 1369 3016 2328 
Q 3016 3291 2770 3770 
Q 2525 4250 2034 4250 
z
M 2034 4750 
Q 2819 4750 3233 4129 
Q 3647 3509 3647 2328 
Q 3647 1150 3233 529 
Q 2819 -91 2034 -91 
Q 1250 -91 836 529 
Q 422 1150 422 2328 
Q 422 3509 836 4129 
Q 1250 4750 2034 4750 
z
" transform="scale(0.015625)"/>
     </defs>
     <use xlink:href="#DejaVuSans-31"/>
     <use xlink:href="#DejaVuSans-38" x="63.623047"/>
     <use xlink:href="#DejaVuSans-2e" x="127.246094"/>
     <use xlink:href="#DejaVuSans-30" x="159.033203"/>
     <use xlink:href="#DejaVuSans-25" x="222.65625"/>
    </g>
   </g>
   <g id="text_7">
    <!-- No Debt -->
    <g transform="translate(174.272948 80.4) scale(0.12 -0.12)">
     <defs>
      <path id="DejaVuSans-4e" d="M 628 4666 
L 1478 4666 
L 3547 763 
L 3547 4666 
L 4159 4666 
L 4159 0 
L 3309 0 
L 1241 3903 
L 1241 0 
L 628 0 
L 628 4666 
z
" transform="scale(0.015625)"/>
      <path id="DejaVuSans-20" transform="scale(0.015625)"/>
      <path id="DejaVuSans-62" d="M 3116 1747 
Q 3116 2381 2855 2742 
Q 2594 3103 2138 3103 
Q 1681 3103 1420 2742 
Q 1159 2381 1159 1747 
Q 1159 1113 1420 752 
Q 1681 391 2138 391 
Q 2594 391 2855 752 
Q 3116 1113 3116 1747 
z
M 1159 2969 
Q 1341 3281 1617 3432 
Q 1894 3584 2278 3584 
Q 2916 3584 3314 3078 
Q 3713 2572 3713 1747 
Q 3713 922 3314 415 
Q 2916 -91 2278 -91 
Q 1894 -91 1617 61 
Q 1341 213 1159 525 
L 1159 0 
L 581 0 
L 581 4863 
L 1159 4863 
L 1159 2969 
z
" transform="scale(0.015625)"/>
     </defs>
     <use xlink:href="#DejaVuSans-4e"/>
     <use xlink:href="#DejaVuSans-6f" x="74.804688"/>
     <use xlink:href="#DejaVuSans-20" x="135.986328"/>
     <use xlink:href="#DejaVuSans-44" x="167.773438"/>
     <use xlink:href="#DejaVuSans-65" x="244.775391"/>
     <use xlink:href="#DejaVuSans-62" x="306.298828"/>
     <use xlink:href="#DejaVuSans-74" x="369.775391"/>
    </g>
   </g>
  </g>
  <g id="axes_2">
   <g id="patch_5">
    <path d="M 465.326155 130.67867 
C 457.677109 139.794448 452.374439 150.645501 449.882563 162.281475 
C 447.390687 173.917448 447.78454 185.988427 451.029628 197.437215 
C 454.274716 208.886002 460.273452 219.368312 468.500458 227.966085 
C 476.727464 236.563858 486.935337 243.018543 498.230056 246.764829 
C 509.524775 250.511115 521.566685 251.436343 533.301136 249.459481 
C 545.035587 247.482619 556.109702 242.663114 565.553591 235.423066 
C 574.99748 228.183019 582.527148 218.740151 587.483134 207.921485 
C 592.439119 197.102819 594.672387 185.233692 593.987343 173.353623 
L 521.187052 177.551528 
z
" style="fill: #008080"/>
   </g>
   <g id="patch_6">
    <path d="M 593.987343 173.353623 
C 593.097389 157.919996 587.322195 143.162047 577.500693 131.223582 
C 567.67919 119.285117 554.31115 110.77363 539.338473 106.925537 
L 521.187052 177.551528 
z
" style="fill: #daa520"/>
   </g>
   <g id="patch_7">
    <path d="M 539.338473 106.925537 
C 526.018702 103.502254 511.998344 103.915888 498.903554 108.118464 
C 485.808765 112.32104 474.166172 120.143544 465.326146 130.67868 
L 521.187052 177.551528 
z
" style="fill: #6a5acd"/>
   </g>
   <g id="matplotlib.axis_3"/>
   <g id="matplotlib.axis_4"/>
   <g id="text_8">
    <!-- Dropout -->
    <g transform="translate(455.504669 256.445534) scale(0.1 -0.1)">
     <use xlink:href="#DejaVuSans-44"/>
     <use xlink:href="#DejaVuSans-72" x="77.001953"/>
     <use xlink:href="#DejaVuSans-6f" x="115.865234"/>
     <use xlink:href="#DejaVuSans-70" x="177.046875"/>
     <use xlink:href="#DejaVuSans-6f" x="240.523438"/>
     <use xlink:href="#DejaVuSans-75" x="301.705078"/>
     <use xlink:href="#DejaVuSans-74" x="365.083984"/>
    </g>
   </g>
   <g id="text_9">
    <!-- 62.0% -->
    <g transform="translate(491.529261 221.838884) scale(0.1 -0.1)">
     <defs>
      <path id="DejaVuSans-36" d="M 2113 2584 
Q 1688 2584 1439 2293 
Q 1191 2003 1191 1497 
Q 1191 994 1439 701 
Q 1688 409 2113 409 
Q 2538 409 2786 701 
Q 3034 994 3034 1497 
Q 3034 2003 2786 2293 
Q 2538 2584 2113 2584 
z
M 3366 4563 
L 3366 3988 
Q 3128 4100 2886 4159 
Q 2644 4219 2406 4219 
Q 1781 4219 1451 3797 
Q 1122 3375 1075 2522 
Q 1259 2794 1537 2939 
Q 1816 3084 2150 3084 
Q 2853 3084 3261 2657 
Q 3669 2231 3669 1497 
Q 3669 778 3244 343 
Q 2819 -91 2113 -91 
Q 1303 -91 875 529 
Q 447 1150 447 2328 
Q 447 3434 972 4092 
Q 1497 4750 2381 4750 
Q 2619 4750 2861 4703 
Q 3103 4656 3366 4563 
z
" transform="scale(0.015625)"/>
     </defs>
     <use xlink:href="#DejaVuSans-36"/>
     <use xlink:href="#DejaVuSans-32" x="63.623047"/>
     <use xlink:href="#DejaVuSans-2e" x="127.246094"/>
     <use xlink:href="#DejaVuSans-30" x="159.033203"/>
     <use xlink:href="#DejaVuSans-25" x="222.65625"/>
    </g>
   </g>
   <g id="text_10">
    <!-- Graduate -->
    <g transform="translate(583.132057 129.350162) scale(0.1 -0.1)">
     <use xlink:href="#DejaVuSans-47"/>
     <use xlink:href="#DejaVuSans-72" x="77.490234"/>
     <use xlink:href="#DejaVuSans-61" x="118.603516"/>
     <use xlink:href="#DejaVuSans-64" x="179.882812"/>
     <use xlink:href="#DejaVuSans-75" x="243.359375"/>
     <use xlink:href="#DejaVuSans-61" x="306.738281"/>
     <use xlink:href="#DejaVuSans-74" x="368.017578"/>
     <use xlink:href="#DejaVuSans-65" x="407.226562"/>
    </g>
   </g>
   <g id="text_11">
    <!-- 20.1% -->
    <g transform="translate(539.091643 152.514136) scale(0.1 -0.1)">
     <use xlink:href="#DejaVuSans-32"/>
     <use xlink:href="#DejaVuSans-30" x="63.623047"/>
     <use xlink:href="#DejaVuSans-2e" x="127.246094"/>
     <use xlink:href="#DejaVuSans-31" x="159.033203"/>
     <use xlink:href="#DejaVuSans-25" x="222.65625"/>
    </g>
   </g>
   <g id="text_12">
    <!-- Enrolled -->
    <g transform="translate(455.956454 103.934532) scale(0.1 -0.1)">
     <use xlink:href="#DejaVuSans-45"/>
     <use xlink:href="#DejaVuSans-6e" x="63.183594"/>
     <use xlink:href="#DejaVuSans-72" x="126.5625"/>
     <use xlink:href="#DejaVuSans-6f" x="165.425781"/>
     <use xlink:href="#DejaVuSans-6c" x="226.607422"/>
     <use xlink:href="#DejaVuSans-6c" x="254.390625"/>
     <use xlink:href="#DejaVuSans-65" x="282.173828"/>
     <use xlink:href="#DejaVuSans-64" x="343.697266"/>
    </g>
   </g>
   <g id="text_13">
    <!-- 17.9% -->
    <g transform="translate(491.93336 138.651065) scale(0.1 -0.1)">
     <defs>
      <path id="DejaVuSans-37" d="M 525 4666 
L 3525 4666 
L 3525 4397 
L 1831 0 
L 1172 0 
L 2766 4134 
L 525 4134 
L 525 4666 
z
" transform="scale(0.015625)"/>
      <path id="DejaVuSans-39" d="M 703 97 
L 703 672 
Q 941 559 1184 500 
Q 1428 441 1663 441 
Q 2288 441 2617 861 
Q 2947 1281 2994 2138 
Q 2813 1869 2534 1725 
Q 2256 1581 1919 1581 
Q 1219 1581 811 2004 
Q 403 2428 403 3163 
Q 403 3881 828 4315 
Q 1253 4750 1959 4750 
Q 2769 4750 3195 4129 
Q 3622 3509 3622 2328 
Q 3622 1225 3098 567 
Q 2575 -91 1691 -91 
Q 1453 -91 1209 -44 
Q 966 3 703 97 
z
M 1959 2075 
Q 2384 2075 2632 2365 
Q 2881 2656 2881 3163 
Q 2881 3666 2632 3958 
Q 2384 4250 1959 4250 
Q 1534 4250 1286 3958 
Q 1038 3666 1038 3163 
Q 1038 2656 1286 2365 
Q 1534 2075 1959 2075 
z
" transform="scale(0.015625)"/>
     </defs>
     <use xlink:href="#DejaVuSans-31"/>
     <use xlink:href="#DejaVuSans-37" x="63.623047"/>
     <use xlink:href="#DejaVuSans-2e" x="127.246094"/>
     <use xlink:href="#DejaVuSans-39" x="159.033203"/>
     <use xlink:href="#DejaVuSans-25" x="222.65625"/>
    </g>
   </g>
   <g id="text_14">
    <!-- Debt -->
    <g transform="translate(506.713927 80.4) scale(0.12 -0.12)">
     <use xlink:href="#DejaVuSans-44"/>
     <use xlink:href="#DejaVuSans-65" x="77.001953"/>
     <use xlink:href="#DejaVuSans-62" x="138.525391"/>
     <use xlink:href="#DejaVuSans-74" x="202.001953"/>
    </g>
   </g>
  </g>
  <g id="axes_3">
   <g id="patch_8">
    <path d="M 142.95205 346.327142 
C 136.058166 354.542953 131.060947 364.179381 128.317618 374.54757 
C 125.574288 384.915759 125.151812 395.762623 127.080391 406.312779 
C 129.008969 416.862935 133.241526 426.858855 139.475497 435.585985 
C 145.709469 444.313114 153.792686 451.558427 163.147323 456.803993 
C 172.50196 462.049559 182.899672 465.167337 193.597183 465.934452 
C 204.294693 466.701567 215.030878 465.099295 225.038266 461.242174 
C 235.045654 457.385052 244.079966 451.367233 251.495389 443.618897 
C 258.910811 435.870561 264.526335 426.580843 267.940536 416.413817 
L 198.812948 393.2 
z
" style="fill: #008080"/>
   </g>
   <g id="patch_9">
    <path d="M 267.940536 416.413817 
C 274.030143 398.279794 272.746142 378.45844 264.36785 361.261629 
C 255.989557 344.064817 241.171999 330.837018 223.138539 324.455762 
L 198.812948 393.2 
z
" style="fill: #daa520"/>
   </g>
   <g id="patch_10">
    <path d="M 223.138539 324.455762 
C 209.137823 319.501518 193.952199 318.940708 179.624196 322.848763 
C 165.296193 326.756818 152.498357 334.950297 142.95205 346.327142 
L 198.812948 393.2 
z
" style="fill: #6a5acd"/>
   </g>
   <g id="matplotlib.axis_5"/>
   <g id="matplotlib.axis_6"/>
   <g id="text_15">
    <!-- Graduate -->
    <g transform="translate(112.705761 465.923767) scale(0.1 -0.1)">
     <use xlink:href="#DejaVuSans-47"/>
     <use xlink:href="#DejaVuSans-72" x="77.490234"/>
     <use xlink:href="#DejaVuSans-61" x="118.603516"/>
     <use xlink:href="#DejaVuSans-64" x="179.882812"/>
     <use xlink:href="#DejaVuSans-75" x="243.359375"/>
     <use xlink:href="#DejaVuSans-61" x="306.738281"/>
     <use xlink:href="#DejaVuSans-74" x="368.017578"/>
     <use xlink:href="#DejaVuSans-65" x="407.226562"/>
    </g>
   </g>
   <g id="text_16">
    <!-- 56.0% -->
    <g transform="translate(161.529979 434.121771) scale(0.1 -0.1)">
     <use xlink:href="#DejaVuSans-35"/>
     <use xlink:href="#DejaVuSans-36" x="63.623047"/>
     <use xlink:href="#DejaVuSans-2e" x="127.246094"/>
     <use xlink:href="#DejaVuSans-30" x="159.033203"/>
     <use xlink:href="#DejaVuSans-25" x="222.65625"/>
    </g>
   </g>
   <g id="text_17">
    <!-- Dropout -->
    <g transform="translate(270.92334 360.827167) scale(0.1 -0.1)">
     <use xlink:href="#DejaVuSans-44"/>
     <use xlink:href="#DejaVuSans-72" x="77.001953"/>
     <use xlink:href="#DejaVuSans-6f" x="115.865234"/>
     <use xlink:href="#DejaVuSans-70" x="177.046875"/>
     <use xlink:href="#DejaVuSans-6f" x="240.523438"/>
     <use xlink:href="#DejaVuSans-75" x="301.705078"/>
     <use xlink:href="#DejaVuSans-74" x="365.083984"/>
    </g>
   </g>
   <g id="text_18">
    <!-- 24.7% -->
    <g transform="translate(222.262295 376.796352) scale(0.1 -0.1)">
     <defs>
      <path id="DejaVuSans-34" d="M 2419 4116 
L 825 1625 
L 2419 1625 
L 2419 4116 
z
M 2253 4666 
L 3047 4666 
L 3047 1625 
L 3713 1625 
L 3713 1100 
L 3047 1100 
L 3047 0 
L 2419 0 
L 2419 1100 
L 313 1100 
L 313 1709 
L 2253 4666 
z
" transform="scale(0.015625)"/>
     </defs>
     <use xlink:href="#DejaVuSans-32"/>
     <use xlink:href="#DejaVuSans-34" x="63.623047"/>
     <use xlink:href="#DejaVuSans-2e" x="127.246094"/>
     <use xlink:href="#DejaVuSans-37" x="159.033203"/>
     <use xlink:href="#DejaVuSans-25" x="222.65625"/>
    </g>
   </g>
   <g id="text_19">
    <!-- Enrolled -->
    <g transform="translate(136.986571 318.573015) scale(0.1 -0.1)">
     <use xlink:href="#DejaVuSans-45"/>
     <use xlink:href="#DejaVuSans-6e" x="63.183594"/>
     <use xlink:href="#DejaVuSans-72" x="126.5625"/>
     <use xlink:href="#DejaVuSans-6f" x="165.425781"/>
     <use xlink:href="#DejaVuSans-6c" x="226.607422"/>
     <use xlink:href="#DejaVuSans-6c" x="254.390625"/>
     <use xlink:href="#DejaVuSans-65" x="282.173828"/>
     <use xlink:href="#DejaVuSans-64" x="343.697266"/>
    </g>
   </g>
   <g id="text_20">
    <!-- 19.3% -->
    <g transform="translate(171.416103 353.748633) scale(0.1 -0.1)">
     <use xlink:href="#DejaVuSans-31"/>
     <use xlink:href="#DejaVuSans-39" x="63.623047"/>
     <use xlink:href="#DejaVuSans-2e" x="127.246094"/>
     <use xlink:href="#DejaVuSans-33" x="159.033203"/>
     <use xlink:href="#DejaVuSans-25" x="222.65625"/>
    </g>
   </g>
   <g id="text_21">
    <!-- Tuition Paid -->
    <g transform="translate(164.686073 296.048472) scale(0.12 -0.12)">
     <defs>
      <path id="DejaVuSans-54" d="M -19 4666 
L 3928 4666 
L 3928 4134 
L 2272 4134 
L 2272 0 
L 1638 0 
L 1638 4134 
L -19 4134 
L -19 4666 
z
" transform="scale(0.015625)"/>
      <path id="DejaVuSans-69" d="M 603 3500 
L 1178 3500 
L 1178 0 
L 603 0 
L 603 3500 
z
M 603 4863 
L 1178 4863 
L 1178 4134 
L 603 4134 
L 603 4863 
z
" transform="scale(0.015625)"/>
      <path id="DejaVuSans-50" d="M 1259 4147 
L 1259 2394 
L 2053 2394 
Q 2494 2394 2734 2622 
Q 2975 2850 2975 3272 
Q 2975 3691 2734 3919 
Q 2494 4147 2053 4147 
L 1259 4147 
z
M 628 4666 
L 2053 4666 
Q 2838 4666 3239 4311 
Q 3641 3956 3641 3272 
Q 3641 2581 3239 2228 
Q 2838 1875 2053 1875 
L 1259 1875 
L 1259 0 
L 628 0 
L 628 4666 
z
" transform="scale(0.015625)"/>
     </defs>
     <use xlink:href="#DejaVuSans-54"/>
     <use xlink:href="#DejaVuSans-75" x="45.958984"/>
     <use xlink:href="#DejaVuSans-69" x="109.337891"/>
     <use xlink:href="#DejaVuSans-74" x="137.121094"/>
     <use xlink:href="#DejaVuSans-69" x="176.330078"/>
     <use xlink:href="#DejaVuSans-6f" x="204.113281"/>
     <use xlink:href="#DejaVuSans-6e" x="265.294922"/>
     <use xlink:href="#DejaVuSans-20" x="328.673828"/>
     <use xlink:href="#DejaVuSans-50" x="360.460938"/>
     <use xlink:href="#DejaVuSans-61" x="416.263672"/>
     <use xlink:href="#DejaVuSans-69" x="477.542969"/>
     <use xlink:href="#DejaVuSans-64" x="505.326172"/>
    </g>
   </g>
  </g>
  <g id="axes_4">
   <g id="patch_11">
    <path d="M 465.326155 346.327142 
C 460.002821 352.671244 455.798925 359.876088 452.895174 367.631972 
C 449.991422 375.387856 448.430025 383.582035 448.278101 391.862278 
C 448.126176 400.142521 449.385932 408.388462 452.003218 416.245645 
C 454.620503 424.102828 458.557272 431.457036 463.6443 437.992146 
C 468.731328 444.527256 474.894666 450.148268 481.869382 454.613562 
C 488.844099 459.078855 496.528803 462.32352 504.593165 464.208081 
C 512.657527 466.092643 520.984318 466.589707 529.215608 465.677907 
C 537.446898 464.766107 545.46303 462.458697 552.919429 458.854862 
C 560.375829 455.251028 567.164102 450.403156 572.992455 444.519635 
C 578.820808 438.636114 583.604513 431.802471 587.137943 424.312452 
C 590.671373 416.822433 592.903163 408.784919 593.737378 400.545404 
C 594.571593 392.30589 593.996106 383.984151 592.035656 375.937901 
C 590.075205 367.89165 586.75829 360.237854 582.227487 353.305514 
C 577.696685 346.373174 572.017859 340.263063 565.435116 335.237826 
C 558.852372 330.21259 551.461403 326.345278 543.579912 323.802129 
C 535.698421 321.25898 527.440978 320.076962 519.162534 320.306886 
L 521.187052 393.2 
z
" style="fill: #008080"/>
   </g>
   <g id="patch_12">
    <path d="M 519.162534 320.306886 
C 513.082663 320.475747 507.047734 321.404612 501.19848 323.07182 
C 495.349227 324.739027 489.731473 327.131516 484.476224 330.193494 
L 521.187052 393.2 
z
" style="fill: #daa520"/>
   </g>
   <g id="patch_13">
    <path d="M 484.476224 330.193494 
C 480.850062 332.306282 477.413053 334.728172 474.203493 337.432179 
C 470.993933 340.136185 468.023788 343.112227 465.326153 346.327144 
L 521.187052 393.2 
z
" style="fill: #6a5acd"/>
   </g>
   <g id="matplotlib.axis_7"/>
   <g id="matplotlib.axis_8"/>
   <g id="text_22">
    <!-- Dropout -->
    <g transform="translate(556.092667 468.179724) scale(0.1 -0.1)">
     <use xlink:href="#DejaVuSans-44"/>
     <use xlink:href="#DejaVuSans-72" x="77.001953"/>
     <use xlink:href="#DejaVuSans-6f" x="115.865234"/>
     <use xlink:href="#DejaVuSans-70" x="177.046875"/>
     <use xlink:href="#DejaVuSans-6f" x="240.523438"/>
     <use xlink:href="#DejaVuSans-75" x="301.705078"/>
     <use xlink:href="#DejaVuSans-74" x="365.083984"/>
    </g>
   </g>
   <g id="text_23">
    <!-- 86.6% -->
    <g transform="translate(524.342885 435.352292) scale(0.1 -0.1)">
     <use xlink:href="#DejaVuSans-38"/>
     <use xlink:href="#DejaVuSans-36" x="63.623047"/>
     <use xlink:href="#DejaVuSans-2e" x="127.246094"/>
     <use xlink:href="#DejaVuSans-36" x="159.033203"/>
     <use xlink:href="#DejaVuSans-25" x="222.65625"/>
    </g>
   </g>
   <g id="text_24">
    <!-- Enrolled -->
    <g transform="translate(458.480873 318.818376) scale(0.1 -0.1)">
     <use xlink:href="#DejaVuSans-45"/>
     <use xlink:href="#DejaVuSans-6e" x="63.183594"/>
     <use xlink:href="#DejaVuSans-72" x="126.5625"/>
     <use xlink:href="#DejaVuSans-6f" x="165.425781"/>
     <use xlink:href="#DejaVuSans-6c" x="226.607422"/>
     <use xlink:href="#DejaVuSans-6c" x="254.390625"/>
     <use xlink:href="#DejaVuSans-65" x="282.173828"/>
     <use xlink:href="#DejaVuSans-64" x="343.697266"/>
    </g>
   </g>
   <g id="text_25">
    <!-- 8.0% -->
    <g transform="translate(496.491565 353.882467) scale(0.1 -0.1)">
     <use xlink:href="#DejaVuSans-38"/>
     <use xlink:href="#DejaVuSans-2e" x="63.623047"/>
     <use xlink:href="#DejaVuSans-30" x="95.410156"/>
     <use xlink:href="#DejaVuSans-25" x="159.033203"/>
    </g>
   </g>
   <g id="text_26">
    <!-- Graduate -->
    <g transform="translate(422.630137 334.614772) scale(0.1 -0.1)">
     <use xlink:href="#DejaVuSans-47"/>
     <use xlink:href="#DejaVuSans-72" x="77.490234"/>
     <use xlink:href="#DejaVuSans-61" x="118.603516"/>
     <use xlink:href="#DejaVuSans-64" x="179.882812"/>
     <use xlink:href="#DejaVuSans-75" x="243.359375"/>
     <use xlink:href="#DejaVuSans-61" x="306.738281"/>
     <use xlink:href="#DejaVuSans-74" x="368.017578"/>
     <use xlink:href="#DejaVuSans-65" x="407.226562"/>
    </g>
   </g>
   <g id="text_27">
    <!-- 5.5% -->
    <g transform="translate(480.294573 362.498682) scale(0.1 -0.1)">
     <use xlink:href="#DejaVuSans-35"/>
     <use xlink:href="#DejaVuSans-2e" x="63.623047"/>
     <use xlink:href="#DejaVuSans-35" x="95.410156"/>
     <use xlink:href="#DejaVuSans-25" x="159.033203"/>
    </g>
   </g>
   <g id="text_28">
    <!-- Tuition not paid -->
    <g transform="translate(474.866115 296.048472) scale(0.12 -0.12)">
     <use xlink:href="#DejaVuSans-54"/>
     <use xlink:href="#DejaVuSans-75" x="45.958984"/>
     <use xlink:href="#DejaVuSans-69" x="109.337891"/>
     <use xlink:href="#DejaVuSans-74" x="137.121094"/>
     <use xlink:href="#DejaVuSans-69" x="176.330078"/>
     <use xlink:href="#DejaVuSans-6f" x="204.113281"/>
     <use xlink:href="#DejaVuSans-6e" x="265.294922"/>
     <use xlink:href="#DejaVuSans-20" x="328.673828"/>
     <use xlink:href="#DejaVuSans-6e" x="360.460938"/>
     <use xlink:href="#DejaVuSans-6f" x="423.839844"/>
     <use xlink:href="#DejaVuSans-74" x="485.021484"/>
     <use xlink:href="#DejaVuSans-20" x="524.230469"/>
     <use xlink:href="#DejaVuSans-70" x="556.017578"/>
     <use xlink:href="#DejaVuSans-61" x="619.494141"/>
     <use xlink:href="#DejaVuSans-69" x="680.773438"/>
     <use xlink:href="#DejaVuSans-64" x="708.556641"/>
    </g>
   </g>
  </g>
  <g id="axes_5">
   <g id="patch_14">
    <path d="M 142.95205 561.975613 
C 132.72209 574.167205 126.759292 589.378946 125.979345 605.274816 
C 125.199398 621.170686 129.64438 636.893095 138.631689 650.027602 
C 147.618998 663.16211 160.663765 673.000101 175.762745 678.030788 
C 190.861725 683.061474 207.20032 683.013448 222.269465 677.894084 
L 198.812948 608.848472 
z
" style="fill: #008080"/>
   </g>
   <g id="patch_15">
    <path d="M 222.269465 677.894084 
C 236.369668 673.103893 248.669789 664.107514 257.506785 652.121306 
C 266.343781 640.135098 271.300584 625.724757 271.707008 610.83864 
C 272.113431 595.952523 267.950294 581.293188 259.780476 568.842657 
C 251.610657 556.392125 239.819735 546.738008 226.001908 541.185593 
L 198.812948 608.848472 
z
" style="fill: #daa520"/>
   </g>
   <g id="patch_16">
    <path d="M 226.001908 541.185593 
C 211.736958 535.453511 196.018218 534.376734 181.104864 538.11002 
C 166.19151 541.843307 152.833968 550.198803 142.95205 561.975613 
L 198.812948 608.848472 
z
" style="fill: #6a5acd"/>
   </g>
   <g id="matplotlib.axis_9"/>
   <g id="matplotlib.axis_10"/>
   <g id="text_29">
    <!-- Graduate -->
    <g transform="translate(85.738563 656.90489) scale(0.1 -0.1)">
     <use xlink:href="#DejaVuSans-47"/>
     <use xlink:href="#DejaVuSans-72" x="77.490234"/>
     <use xlink:href="#DejaVuSans-61" x="118.603516"/>
     <use xlink:href="#DejaVuSans-64" x="179.882812"/>
     <use xlink:href="#DejaVuSans-75" x="243.359375"/>
     <use xlink:href="#DejaVuSans-61" x="306.738281"/>
     <use xlink:href="#DejaVuSans-74" x="368.017578"/>
     <use xlink:href="#DejaVuSans-65" x="407.226562"/>
    </g>
   </g>
   <g id="text_30">
    <!-- 41.3% -->
    <g transform="translate(146.820599 636.315325) scale(0.1 -0.1)">
     <use xlink:href="#DejaVuSans-34"/>
     <use xlink:href="#DejaVuSans-31" x="63.623047"/>
     <use xlink:href="#DejaVuSans-2e" x="127.246094"/>
     <use xlink:href="#DejaVuSans-33" x="159.033203"/>
     <use xlink:href="#DejaVuSans-25" x="222.65625"/>
    </g>
   </g>
   <g id="text_31">
    <!-- Dropout -->
    <g transform="translate(278.996413 613.797032) scale(0.1 -0.1)">
     <use xlink:href="#DejaVuSans-44"/>
     <use xlink:href="#DejaVuSans-72" x="77.001953"/>
     <use xlink:href="#DejaVuSans-6f" x="115.865234"/>
     <use xlink:href="#DejaVuSans-70" x="177.046875"/>
     <use xlink:href="#DejaVuSans-6f" x="240.523438"/>
     <use xlink:href="#DejaVuSans-75" x="301.705078"/>
     <use xlink:href="#DejaVuSans-74" x="365.083984"/>
    </g>
   </g>
   <g id="text_32">
    <!-- 38.7% -->
    <g transform="translate(226.66579 612.801948) scale(0.1 -0.1)">
     <use xlink:href="#DejaVuSans-33"/>
     <use xlink:href="#DejaVuSans-38" x="63.623047"/>
     <use xlink:href="#DejaVuSans-2e" x="127.246094"/>
     <use xlink:href="#DejaVuSans-37" x="159.033203"/>
     <use xlink:href="#DejaVuSans-25" x="222.65625"/>
    </g>
   </g>
   <g id="text_33">
    <!-- Enrolled -->
    <g transform="translate(138.615306 533.79555) scale(0.1 -0.1)">
     <use xlink:href="#DejaVuSans-45"/>
     <use xlink:href="#DejaVuSans-6e" x="63.183594"/>
     <use xlink:href="#DejaVuSans-72" x="126.5625"/>
     <use xlink:href="#DejaVuSans-6f" x="165.425781"/>
     <use xlink:href="#DejaVuSans-6c" x="226.607422"/>
     <use xlink:href="#DejaVuSans-6c" x="254.390625"/>
     <use xlink:href="#DejaVuSans-65" x="282.173828"/>
     <use xlink:href="#DejaVuSans-64" x="343.697266"/>
    </g>
   </g>
   <g id="text_34">
    <!-- 20.0% -->
    <g transform="translate(172.304504 569.164776) scale(0.1 -0.1)">
     <use xlink:href="#DejaVuSans-32"/>
     <use xlink:href="#DejaVuSans-30" x="63.623047"/>
     <use xlink:href="#DejaVuSans-2e" x="127.246094"/>
     <use xlink:href="#DejaVuSans-30" x="159.033203"/>
     <use xlink:href="#DejaVuSans-25" x="222.65625"/>
    </g>
   </g>
   <g id="text_35">
    <!-- No Scholarship -->
    <g transform="translate(153.949823 511.696943) scale(0.12 -0.12)">
     <defs>
      <path id="DejaVuSans-53" d="M 3425 4513 
L 3425 3897 
Q 3066 4069 2747 4153 
Q 2428 4238 2131 4238 
Q 1616 4238 1336 4038 
Q 1056 3838 1056 3469 
Q 1056 3159 1242 3001 
Q 1428 2844 1947 2747 
L 2328 2669 
Q 3034 2534 3370 2195 
Q 3706 1856 3706 1288 
Q 3706 609 3251 259 
Q 2797 -91 1919 -91 
Q 1588 -91 1214 -16 
Q 841 59 441 206 
L 441 856 
Q 825 641 1194 531 
Q 1563 422 1919 422 
Q 2459 422 2753 634 
Q 3047 847 3047 1241 
Q 3047 1584 2836 1778 
Q 2625 1972 2144 2069 
L 1759 2144 
Q 1053 2284 737 2584 
Q 422 2884 422 3419 
Q 422 4038 858 4394 
Q 1294 4750 2059 4750 
Q 2388 4750 2728 4690 
Q 3069 4631 3425 4513 
z
" transform="scale(0.015625)"/>
      <path id="DejaVuSans-63" d="M 3122 3366 
L 3122 2828 
Q 2878 2963 2633 3030 
Q 2388 3097 2138 3097 
Q 1578 3097 1268 2742 
Q 959 2388 959 1747 
Q 959 1106 1268 751 
Q 1578 397 2138 397 
Q 2388 397 2633 464 
Q 2878 531 3122 666 
L 3122 134 
Q 2881 22 2623 -34 
Q 2366 -91 2075 -91 
Q 1284 -91 818 406 
Q 353 903 353 1747 
Q 353 2603 823 3093 
Q 1294 3584 2113 3584 
Q 2378 3584 2631 3529 
Q 2884 3475 3122 3366 
z
" transform="scale(0.015625)"/>
      <path id="DejaVuSans-68" d="M 3513 2113 
L 3513 0 
L 2938 0 
L 2938 2094 
Q 2938 2591 2744 2837 
Q 2550 3084 2163 3084 
Q 1697 3084 1428 2787 
Q 1159 2491 1159 1978 
L 1159 0 
L 581 0 
L 581 4863 
L 1159 4863 
L 1159 2956 
Q 1366 3272 1645 3428 
Q 1925 3584 2291 3584 
Q 2894 3584 3203 3211 
Q 3513 2838 3513 2113 
z
" transform="scale(0.015625)"/>
      <path id="DejaVuSans-73" d="M 2834 3397 
L 2834 2853 
Q 2591 2978 2328 3040 
Q 2066 3103 1784 3103 
Q 1356 3103 1142 2972 
Q 928 2841 928 2578 
Q 928 2378 1081 2264 
Q 1234 2150 1697 2047 
L 1894 2003 
Q 2506 1872 2764 1633 
Q 3022 1394 3022 966 
Q 3022 478 2636 193 
Q 2250 -91 1575 -91 
Q 1294 -91 989 -36 
Q 684 19 347 128 
L 347 722 
Q 666 556 975 473 
Q 1284 391 1588 391 
Q 1994 391 2212 530 
Q 2431 669 2431 922 
Q 2431 1156 2273 1281 
Q 2116 1406 1581 1522 
L 1381 1569 
Q 847 1681 609 1914 
Q 372 2147 372 2553 
Q 372 3047 722 3315 
Q 1072 3584 1716 3584 
Q 2034 3584 2315 3537 
Q 2597 3491 2834 3397 
z
" transform="scale(0.015625)"/>
     </defs>
     <use xlink:href="#DejaVuSans-4e"/>
     <use xlink:href="#DejaVuSans-6f" x="74.804688"/>
     <use xlink:href="#DejaVuSans-20" x="135.986328"/>
     <use xlink:href="#DejaVuSans-53" x="167.773438"/>
     <use xlink:href="#DejaVuSans-63" x="231.25"/>
     <use xlink:href="#DejaVuSans-68" x="286.230469"/>
     <use xlink:href="#DejaVuSans-6f" x="349.609375"/>
     <use xlink:href="#DejaVuSans-6c" x="410.791016"/>
     <use xlink:href="#DejaVuSans-61" x="438.574219"/>
     <use xlink:href="#DejaVuSans-72" x="499.853516"/>
     <use xlink:href="#DejaVuSans-73" x="540.966797"/>
     <use xlink:href="#DejaVuSans-68" x="593.066406"/>
     <use xlink:href="#DejaVuSans-69" x="656.445312"/>
     <use xlink:href="#DejaVuSans-70" x="684.228516"/>
    </g>
   </g>
  </g>
  <g id="axes_6">
   <g id="patch_17">
    <path d="M 465.326155 561.975613 
C 460.655778 567.541552 456.843398 573.774394 454.01552 580.467316 
C 451.187643 587.160239 449.375896 594.238383 448.6404 601.466879 
C 447.904903 608.695374 448.253883 615.993372 449.675758 623.118705 
C 451.097634 630.244038 453.576502 637.117012 457.030108 643.509563 
C 460.483714 649.902114 464.873429 655.742743 470.053593 660.837644 
C 475.233756 665.932544 481.146428 670.224731 487.59541 673.571778 
C 494.044393 676.918824 500.957557 679.283295 508.105505 680.586731 
C 515.253452 681.890167 522.556237 682.117989 529.771531 681.262638 
C 536.986826 680.407286 544.03393 678.478329 550.679002 675.539772 
C 557.324075 672.601216 563.492792 668.685928 568.98046 663.923828 
C 574.468129 659.161728 579.21337 653.606078 583.058724 647.44123 
C 586.904078 641.276382 589.806536 634.571287 591.669787 627.548439 
C 593.533038 620.525591 594.336242 613.263537 594.052747 606.003253 
C 593.769251 598.742968 592.402227 591.565656 589.997035 584.70948 
C 587.591844 577.853304 584.175387 571.394947 579.86103 565.548714 
C 575.546674 559.702482 570.382674 554.533763 564.540385 550.214068 
L 521.187052 608.848472 
z
" style="fill: #008080"/>
   </g>
   <g id="patch_18">
    <path d="M 564.540385 550.214068 
C 557.030912 544.661685 548.524222 540.603289 539.483755 538.259979 
C 530.443288 535.916668 521.036255 535.331786 511.775147 536.537195 
L 521.187052 608.848472 
z
" style="fill: #daa520"/>
   </g>
   <g id="patch_19">
    <path d="M 511.775147 536.537195 
C 502.792089 537.706414 494.105056 540.539376 486.159739 544.890735 
C 478.214422 549.242095 471.149066 555.03614 465.326161 561.975605 
L 521.187052 608.848472 
z
" style="fill: #6a5acd"/>
   </g>
   <g id="matplotlib.axis_11"/>
   <g id="matplotlib.axis_12"/>
   <g id="text_36">
    <!-- Graduate -->
    <g transform="translate(530.629979 691.263429) scale(0.1 -0.1)">
     <use xlink:href="#DejaVuSans-47"/>
     <use xlink:href="#DejaVuSans-72" x="77.490234"/>
     <use xlink:href="#DejaVuSans-61" x="118.603516"/>
     <use xlink:href="#DejaVuSans-64" x="179.882812"/>
     <use xlink:href="#DejaVuSans-75" x="243.359375"/>
     <use xlink:href="#DejaVuSans-61" x="306.738281"/>
     <use xlink:href="#DejaVuSans-74" x="368.017578"/>
     <use xlink:href="#DejaVuSans-65" x="407.226562"/>
    </g>
   </g>
   <g id="text_37">
    <!-- 76.0% -->
    <g transform="translate(510.454146 655.056346) scale(0.1 -0.1)">
     <use xlink:href="#DejaVuSans-37"/>
     <use xlink:href="#DejaVuSans-36" x="63.623047"/>
     <use xlink:href="#DejaVuSans-2e" x="127.246094"/>
     <use xlink:href="#DejaVuSans-30" x="159.033203"/>
     <use xlink:href="#DejaVuSans-25" x="222.65625"/>
    </g>
   </g>
   <g id="text_38">
    <!-- Dropout -->
    <g transform="translate(541.313425 533.960504) scale(0.1 -0.1)">
     <use xlink:href="#DejaVuSans-44"/>
     <use xlink:href="#DejaVuSans-72" x="77.001953"/>
     <use xlink:href="#DejaVuSans-6f" x="115.865234"/>
     <use xlink:href="#DejaVuSans-70" x="177.046875"/>
     <use xlink:href="#DejaVuSans-6f" x="240.523438"/>
     <use xlink:href="#DejaVuSans-75" x="301.705078"/>
     <use xlink:href="#DejaVuSans-74" x="365.083984"/>
    </g>
   </g>
   <g id="text_39">
    <!-- 12.2% -->
    <g transform="translate(516.28148 569.254751) scale(0.1 -0.1)">
     <use xlink:href="#DejaVuSans-31"/>
     <use xlink:href="#DejaVuSans-32" x="63.623047"/>
     <use xlink:href="#DejaVuSans-2e" x="127.246094"/>
     <use xlink:href="#DejaVuSans-32" x="159.033203"/>
     <use xlink:href="#DejaVuSans-25" x="222.65625"/>
    </g>
   </g>
   <g id="text_40">
    <!-- Enrolled -->
    <g transform="translate(441.938258 541.254337) scale(0.1 -0.1)">
     <use xlink:href="#DejaVuSans-45"/>
     <use xlink:href="#DejaVuSans-6e" x="63.183594"/>
     <use xlink:href="#DejaVuSans-72" x="126.5625"/>
     <use xlink:href="#DejaVuSans-6f" x="165.425781"/>
     <use xlink:href="#DejaVuSans-6c" x="226.607422"/>
     <use xlink:href="#DejaVuSans-6c" x="254.390625"/>
     <use xlink:href="#DejaVuSans-65" x="282.173828"/>
     <use xlink:href="#DejaVuSans-64" x="343.697266"/>
    </g>
   </g>
   <g id="text_41">
    <!-- 11.8% -->
    <g transform="translate(484.287071 573.233205) scale(0.1 -0.1)">
     <use xlink:href="#DejaVuSans-31"/>
     <use xlink:href="#DejaVuSans-31" x="63.623047"/>
     <use xlink:href="#DejaVuSans-2e" x="127.246094"/>
     <use xlink:href="#DejaVuSans-38" x="159.033203"/>
     <use xlink:href="#DejaVuSans-25" x="222.65625"/>
    </g>
   </g>
   <g id="text_42">
    <!-- Scholarship -->
    <g transform="translate(486.390802 511.696943) scale(0.12 -0.12)">
     <use xlink:href="#DejaVuSans-53"/>
     <use xlink:href="#DejaVuSans-63" x="63.476562"/>
     <use xlink:href="#DejaVuSans-68" x="118.457031"/>
     <use xlink:href="#DejaVuSans-6f" x="181.835938"/>
     <use xlink:href="#DejaVuSans-6c" x="243.017578"/>
     <use xlink:href="#DejaVuSans-61" x="270.800781"/>
     <use xlink:href="#DejaVuSans-72" x="332.080078"/>
     <use xlink:href="#DejaVuSans-73" x="373.193359"/>
     <use xlink:href="#DejaVuSans-68" x="425.292969"/>
     <use xlink:href="#DejaVuSans-69" x="488.671875"/>
     <use xlink:href="#DejaVuSans-70" x="516.455078"/>
    </g>
   </g>
  </g>
  <g id="text_43">
   <!-- Students Financial Status -->
   <g transform="translate(258.73125 26.5575) scale(0.16 -0.16)">
    <defs>
     <path id="DejaVuSans-46" d="M 628 4666 
L 3309 4666 
L 3309 4134 
L 1259 4134 
L 1259 2759 
L 3109 2759 
L 3109 2228 
L 1259 2228 
L 1259 0 
L 628 0 
L 628 4666 
z
" transform="scale(0.015625)"/>
    </defs>
    <use xlink:href="#DejaVuSans-53"/>
    <use xlink:href="#DejaVuSans-74" x="63.476562"/>
    <use xlink:href="#DejaVuSans-75" x="102.685547"/>
    <use xlink:href="#DejaVuSans-64" x="166.064453"/>
    <use xlink:href="#DejaVuSans-65" x="229.541016"/>
    <use xlink:href="#DejaVuSans-6e" x="291.064453"/>
    <use xlink:href="#DejaVuSans-74" x="354.443359"/>
    <use xlink:href="#DejaVuSans-73" x="393.652344"/>
    <use xlink:href="#DejaVuSans-20" x="445.751953"/>
    <use xlink:href="#DejaVuSans-46" x="477.539062"/>
    <use xlink:href="#DejaVuSans-69" x="527.808594"/>
    <use xlink:href="#DejaVuSans-6e" x="555.591797"/>
    <use xlink:href="#DejaVuSans-61" x="618.970703"/>
    <use xlink:href="#DejaVuSans-6e" x="680.25"/>
    <use xlink:href="#DejaVuSans-63" x="743.628906"/>
    <use xlink:href="#DejaVuSans-69" x="798.609375"/>
    <use xlink:href="#DejaVuSans-61" x="826.392578"/>
    <use xlink:href="#DejaVuSans-6c" x="887.671875"/>
    <use xlink:href="#DejaVuSans-20" x="915.455078"/>
    <use xlink:href="#DejaVuSans-53" x="947.242188"/>
    <use xlink:href="#DejaVuSans-74" x="1010.71875"/>
    <use xlink:href="#DejaVuSans-61" x="1049.927734"/>
    <use xlink:href="#DejaVuSans-74" x="1111.207031"/>
    <use xlink:href="#DejaVuSans-75" x="1150.416016"/>
    <use xlink:href="#DejaVuSans-73" x="1213.794922"/>
   </g>
  </g>
 </g>
</svg>
